
<svg xmlns="http://www.w3.org/2000/svg" version="1.1" xmlns:xlink="http://www.w3.org/1999/xlink" preserveAspectRatio="none" x="0px" y="0px" width="169px" height="159px" viewBox="0 0 169 159">
<defs>
<g id="S_mbolo_1_0_Layer0_0_FILL">
<path fill="#27528D" stroke="none" d="
M 48.1 36.8
Q 53.75 35.05 58.75 35 68.1 34.95 75.1 40.95 79.3 44.6 82.65 50.45
L 77.2 13.75 48.1 36.8
M 48.4 49.05
L 48.35 49.05 47.45 50.05 47.25 50.2 47.1 50.4 42.9 54.35 42.5 54.65 42.15 55 41.35 55.6 41 55.95 39.8 56.85 39.65 57 38.4 57.9 38.3 57.95 38.2 58.05 34.45 60.6 28.6 63.8 28.45 63.85 28.1 64.05 22.75 66.25 22.55 66.35 22.4 66.4 22.3 66.45 14.55 68.65 14.3 68.75 5.7 70.1 5.4 70.1 2.15 70.35 1.9 70.35 1.6 70.4 -0.65 70.45
Q -1.35 70.45 -1.7 70.5 -2.05 70.45 -2.8 70.45
L -5 70.45 -5.25 70.4 -7.15 70.3
Q -11.5 70 -15.7 69.25 -19.85 68.45 -23.85 67.15 -27.8 65.9 -31.5 64.15
L -36.35 61.65 -36.55 61.5 -38.45 60.4
Q -41.45 58.55 -44.65 56.1
L -49.5 52.15 -53.85 47.95 -53.95 47.8 -58.7 42.45
Q -60 40.85 -61.8 38.25
L -64.45 34.05 -64.6 33.85 -68.1 26.95
Q -68.1 26.8 -68.2 26.9 -68.35 26.9 -68.25 27
L -64.2 36.95 -63.05 39.05
Q -61.65 41.6 -60.3 43.65 -59.15 45.45 -56.8 48.65
L -56.05 49.6 -55.9 49.75 -55.8 49.95 -52.3 54 -52.25 54.1 -47.25 59.15
Q -44.8 61.5 -41.15 64.35
L -39.5 65.55 -39.3 65.75 -34.1 69.1
Q -30.5 71.25 -26.15 73.2 -21.8 75.1 -17.45 76.4 -12.25 77.85 -8.1 78.5
L -6.05 78.85 -5.75 78.85 -0.25 79.45 0.05 79.45 0.35 79.5 1.8 79.55 1.95 79.6 11.35 79.55
Q 21.4 78.95 30.9 75.85
L 33 75.15 33.1 75.1 40.35 72.05 45.45 69.3 45.6 69.25 47.25 68.25 47.55 68.1 57 61.25 57.2 61.05 57.45 60.9 59.95 58.7 60.15 58.55 60.3 58.4
Q 60.3 58.35 60.35 58.3
L 65.05 53.75 73.45 43.4
Q 74.3 42.2 75.1 40.95 68.1 34.95 58.75 35
L 53.75 42.75 49.7 47.6 49.65 47.65 49.6 47.75 48.4 49.05
M -48.05 -27
Q -54.15 -25.1 -59.45 -25.2 -68.8 -25.4 -75.7 -31.75 -79.55 -35.25 -82.6 -40.65
L -77.15 -3.95 -48.05 -27
M 45.55 -58.25
Q 49.2 -55.65 51.95 -53.25
L 53.4 -51.95 53.6 -51.8 59.95 -45.4 61.05 -44.05
Q 61.45 -43.65 61.6 -43.4
L 61.9 -43.1 63.45 -41.15 63.55 -40.95 66.25 -37.15 66.3 -37.1 66.35 -37 67.7 -34.9 72.75 -24.65 72.8 -24.45 72.9 -24.3 74.4 -20.1
Q 74.4 -19.95 74.5 -20.05 74.65 -20.05 74.55 -20.15
L 73.25 -25.25 69.95 -34.1 68 -38.1 67.95 -38.15 67.85 -38.35 67.65 -38.65 66.9 -40.05 66.8 -40.2 66.7 -40.4 65.65 -42.15 65.55 -42.35 59.8 -50.4 59.75 -50.5 54.7 -56.2
Q 51.55 -59.45 48.45 -62.05 48.15 -62.25 48.05 -62.4
L 41.9 -67 40.4 -67.95 40.3 -68.05 40.15 -68.1 33.35 -71.95 25.9 -75.1 19.85 -77 14.2 -78.25 13.9 -78.35 8.1 -79.2 7.8 -79.2 4.15 -79.55 -8.65 -79.5 -17.25 -78.35 -17.6 -78.25 -17.95 -78.2 -23.15 -76.95
Q -25.7 -76.25 -28.25 -75.35
L -31.05 -74.35 -43.1 -68.3 -43.35 -68.1 -43.65 -67.95 -46.6 -66 -55.65 -58.85
Q -55.75 -58.7 -56.05 -58.5
L -56.15 -58.4
Q -56.25 -58.25 -56.3 -58.25
L -61.6 -52.95
Q -67.7 -46.3 -72.25 -38.6 -74.15 -35.3 -75.7 -31.75 -68.8 -25.4 -59.45 -25.2 -58.45 -28.2 -57.25 -30.7 -56 -33.45 -54.05 -36.8
L -52.05 -39.9 -51.95 -40.1 -47.35 -46.05
Q -46.95 -46.6 -46.05 -47.6
L -42.1 -51.7 -36.9 -56.25 -35.6 -57.2 -35.2 -57.55 -26.1 -63.2 -19.65 -66.05 -15.05 -67.6 -14.75 -67.65 -8.55 -69.15 1.9 -70.4 10.7 -70.35 11 -70.3 11.3 -70.3 12.45 -70.2 12.75 -70.2 15.9 -69.8 16.2 -69.8 17.65 -69.55 17.9 -69.55 21.3 -68.9 21.6 -68.8 22.95 -68.5 23.25 -68.4 24.35 -68.15 32.85 -65.25 37.3 -63.15 37.45 -63.1 38.75 -62.4 39 -62.3 45.55 -58.25 Z"/>
</g>

<path id="S_mbolo_1_0_Layer0_0_1_STROKES" stroke="#27528D" stroke-width="3" stroke-linejoin="miter" stroke-linecap="round" stroke-miterlimit="3" fill="none" d="
M -75.7 -31.75
Q -68.8 -25.4 -59.45 -25.2 -54.15 -25.1 -48.05 -27
L -77.15 -3.95 -82.6 -40.65
Q -79.55 -35.25 -75.7 -31.75 Z
M 75.1 40.95
Q 68.1 34.95 58.75 35 53.75 35.05 48.1 36.8
L 77.2 13.75 82.65 50.45
Q 79.3 44.6 75.1 40.95 Z"/>
</defs>

<g transform="matrix( 0.7901763916015625, 0, 0, 0.7901763916015625, 84.7,79.55) ">
<g transform="matrix( 1, 0, 0, 1, 0,0) ">
<use xlink:href="#S_mbolo_1_0_Layer0_0_FILL"/>

<use xlink:href="#S_mbolo_1_0_Layer0_0_1_STROKES"/>
</g>
</g>
</svg>
