<svg xmlns="http://www.w3.org/2000/svg" xmlns:xlink="http://www.w3.org/1999/xlink" viewBox="0 0 379 379"><defs><symbol id="Nuevo_símbolo_4" data-name="Nuevo símbolo 4" viewBox="0 0 379 379"><rect x="0.5" y="0.5" width="378" height="378" style="fill:#92ceff;stroke:#589ff4;stroke-miterlimit:10;opacity:0"/><path d="M288.25,113.19c-3.83-9.17-21.31-51.3-66.83-66.82-6.75-2.3-34.59-11-66.82,0-45.55,15.52-63,57.65-66.82,66.82C70,156,82.25,195.64,87.78,213.42c9,29,87.54,133.65,100.23,133.65s91.25-104.65,100.24-133.65C293.74,195.64,306,156,288.25,113.19ZM188,194.86a48.26,48.26,0,1,1,48.26-48.26A48.26,48.26,0,0,1,188,194.86Z" style="fill:#27528d;stroke:#589ff4;stroke-miterlimit:10"/></symbol></defs><title>search-location</title><g id="Capa_2" data-name="Capa 2"><g id="Capa_1-2" data-name="Capa 1"><use id="Nuevo_símbolo_4-3" data-name="Nuevo símbolo 4" width="379" height="379" xlink:href="#Nuevo_símbolo_4"/></g></g></svg>