
<svg xmlns="http://www.w3.org/2000/svg" version="1.1" xmlns:xlink="http://www.w3.org/1999/xlink" preserveAspectRatio="none" x="0px" y="0px" width="440px" height="155px" viewBox="0 0 440 155">
<defs>
<g id="Layer1_0_FILL">
<path fill="#FFFFFF" fill-opacity="0" stroke="none" d="
M 184.3 77.75
L 184.3 -77.75 -184.25 -77.75 -184.25 77.75 184.3 77.75 Z"/>
</g>

<g id="logo_0_Layer0_0_FILL">
<path fill="#27528D" stroke="none" d="
M 11.15 63.7
Q 17.2 58.95 24.6 63 24.3 38.35 0 37.1 -24.3 38.35 -24.6 63 -17.2 58.95 -11.15 63.7 -5.1 68.4 0 67.85 5.1 68.4 11.15 63.7
M -64.6 -33.15
Q -49.8 48.5 -11.5 33 -47.25 34.75 -64.6 -33.15
M -49.95 36.85
Q -58.459375 31.3888671875 -64.85 24.4 -71.2001953125 17.419140625 -74.8 -3.4 -76.249609375 14.0822265625 -69.4 24.5 -62.5056640625 34.963671875 -54.7 44.3 -46.840234375 53.688671875 -50.15 61.25 -60.075 61.8896484375 -70 40 -69.780859375 86.555859375 -8.2 80.4 -8.680859375 79.9626953125 -9.05 79.35 -11.4458984375 75.4501953125 -22 75.4 -32.513671875 75.348046875 -36.95 58.8 -41.3841796875 42.305859375 -49.95 36.85
M 11.5 33
Q 49.8 48.5 64.6 -33.15 47.25 34.75 11.5 33
M 16.9 -20.45
Q 5.8 -12.05 0 -1.95 -5.8 -12.05 -16.9 -20.45 -28 -28.9 -34.15 -32.7 -40.3 -36.45 -62 -57 -45.1 -35.35 -35.9 -29.95 -26.7 -24.55 -13.75 -12.5 -0.85 -0.45 0 24.45 0.85 -0.45 13.75 -12.5 26.7 -24.55 35.9 -29.95 45.1 -35.35 62 -57 40.3 -36.45 34.15 -32.7 28 -28.9 16.9 -20.45
M 3.05 -36.3
Q 1.55 -36.5 0 -36.5 -1.55 -36.5 -3.05 -36.3 -11.15 -35.2 -18.85 -27.65 -6.4 -19.15 0 -10.75 6.4 -19.15 18.85 -27.65 11.15 -35.2 3.05 -36.3
M 4.3 -31.3
Q 4.4439453125 -31.1673828125 4.45 -31 4.4583984375 -30.77578125 4.3 -30.65
L 0.65 -26.45 4.3 -22.25
Q 4.4578125 -22.0740234375 4.45 -21.9 4.442578125 -21.681640625 4.3 -21.55 4.1525390625 -21.405859375 3.95 -21.4
L -4 -21.4
Q -4.20234375 -21.40546875 -4.35 -21.55 -4.4931640625 -21.6826171875 -4.5 -21.9 -4.5080078125 -22.0734375 -4.4 -22.25
L -0.65 -26.45 -4.4 -30.65
Q -4.5083984375 -30.77578125 -4.5 -31 -4.4939453125 -31.1673828125 -4.35 -31.3 -4.2021484375 -31.4451171875 -4 -31.45
L 3.95 -31.45
Q 4.1521484375 -31.4451171875 4.3 -31.3
M 2.85 -22.4
L 0 -25.7 -2.9 -22.4 2.85 -22.4
M 0 -27.2
L 2.85 -30.45 -2.9 -30.45 0 -27.2
M 54.65 44.35
Q 62.5 34.95 69.35 24.55 76.25 14.1 74.8 -3.4 71.2 17.4 64.8 24.4 58.45 31.4 49.9 36.85 41.4 42.3 36.95 58.85 32.5 75.35 21.95 75.4 11.45 75.45 9.05 79.35 8.680078125 79.9638671875 8.2 80.4 68.879296875 84.215625 70 40 60.05 61.9 50.15 61.25 46.85 53.7 54.65 44.35
M 0.2 -74.35
Q 0.1 -74.35 0 -74.35 -0.1 -74.35 -0.2 -74.35
L -4.85 -39.6
Q -4.35 -39.75 -3.8 -39.8 -1.9 -40 0 -40 1.9 -40 3.8 -39.8 4.35 -39.75 4.85 -39.6
L 0.2 -74.35
M 18.4 -34.5
Q 21.75 -32.5 25.05 -29.7
L 43.35 -66.25 18.4 -34.5
M -25.05 -29.7
Q -21.75 -32.5 -18.4 -34.5
L -43.35 -66.25 -25.05 -29.7
M -16 -35.8
Q -11.75 -38.1 -7.55 -39.1
L -23.3 -72.1 -16 -35.8
M -64.6 -51.1
Q -58.25 -30.75 -41.7 -19.35 -25.2 -7.95 -15.7 5.3 -6.25 18.55 -8.25 33 -2.15 16.2 -11 1.9 -19.85 -12.45 -36.8 -21.7 -53.75 -30.95 -64.6 -51.1
M 41.7 -19.35
Q 58.25 -30.75 64.6 -51.1 53.75 -30.95 36.8 -21.7 19.85 -12.45 11 1.9 2.15 16.2 8.25 33 6.25 18.55 15.7 5.3 25.2 -7.95 41.7 -19.35
M 7.55 -39.1
Q 11.75 -38.1 16 -35.8
L 23.3 -72.1 7.55 -39.1
M -22.9 10.9
Q -23.15 7.4 -25.7 4.05 -28.15 0.75 -31.45 -0.4 -34.85 -1.55 -37 0.1 -39.3 1.85 -39.1 5.35 -38.95 8.85 -36.45 12.25 -33.9 15.55 -30.6 16.65 -27.3 17.8 -25 16.1 -22.8 14.45 -22.9 10.9
M 39.1 5.35
Q 39.3 1.85 37 0.1 34.85 -1.55 31.45 -0.4 28.15 0.75 25.7 4.05 23.15 7.4 22.9 10.9 22.8 14.45 25 16.1 27.3 17.8 30.6 16.65 33.9 15.55 36.45 12.25 38.95 8.85 39.1 5.35 Z"/>
</g>

<g id="Layer1_2_MEMBER_0_FILL">
<path fill="#27528D" stroke="none" d="
M 214 87.55
L 214 88.15
Q 215.4 88.15 215.9 88.9 216.4 89.65 216.4 91.6
L 216.4 105.05
Q 216.4 106.95 215.9 107.7 215.4 108.45 214 108.45
L 214 109.05 229.5 109.05 230.45 105.05 229.85 105.05
Q 229.25 106.4 228.7 107 228.15 107.55 227.4 107.8 226.65 108 224.6 108
L 220.85 108
Q 220 108 219.65 107.7 219.3 107.35 219.3 106.55
L 219.3 98.85 224.6 98.85
Q 226.3 98.85 226.8 99.2 227.25 99.55 227.6 100.95
L 228.25 100.95 228.25 95.7 227.6 95.7
Q 227.4 96.95 227 97.4 226.5 97.8 225.3 97.8
L 219.3 97.8 219.3 88.6 225.5 88.6
Q 227.55 88.6 228.15 89.1 228.75 89.6 229.1 91.15
L 229.5 91.15 229.5 87.55 214 87.55
M 179.5 88.45
Q 180 88.7 180.4 89.45 180.85 90.15 181.45 91.6
L 188 109.35 188.6 109.35 194.3 93.45 200.2 109.35 200.85 109.35 206.9 92.5
Q 207.75 90.2 208.55 89.25 209.4 88.25 210.7 88.15
L 210.7 87.55 204.15 87.55 204.15 88.15
Q 206.3 88.15 206.3 90 206.3 90.95 205.8 92.4
L 201.4 104.45 196.3 90.8
Q 196 90 196 89.45 196 88.15 198.1 88.15
L 198.1 87.55 190.25 87.55 190.25 88.15
Q 191.5 88.15 192.15 88.7 192.8 89.25 193.25 90.55
L 193.75 91.9 189.15 104.45 184.15 90.75
Q 183.85 90.05 183.85 89.55 183.85 88.4 185.75 88.15
L 185.75 87.55 177.75 87.55 177.75 88.15
Q 179 88.15 179.5 88.45
M 303.7 87.55
L 303.7 88.15
Q 305.1 88.15 305.65 88.9 306.15 89.65 306.15 91.6
L 306.15 105.05
Q 306.15 106.95 305.65 107.7 305.1 108.45 303.7 108.45
L 303.7 109.05 319.2 109.05 320.15 105.05 319.55 105.05
Q 318.95 106.4 318.4 107 317.85 107.55 317.1 107.8 316.35 108 314.3 108
L 310.55 108
Q 309.7 108 309.35 107.7 309 107.35 309 106.55
L 309 98.85 314.3 98.85
Q 316 98.85 316.5 99.2 316.95 99.55 317.3 100.95
L 317.95 100.95 317.95 95.7 317.3 95.7
Q 317.1 96.95 316.7 97.4 316.2 97.8 315 97.8
L 309 97.8 309 88.6 315.2 88.6
Q 317.25 88.6 317.85 89.1 318.45 89.6 318.8 91.15
L 319.2 91.15 319.2 87.55 303.7 87.55
M 279.35 88.9
Q 279.9 89.6 279.9 91.6
L 279.9 105.05
Q 279.9 106.9 279.35 107.65 278.85 108.45 277.45 108.45
L 277.45 109.05 285.2 109.05 285.2 108.45
Q 283.8 108.45 283.25 107.7 282.7 106.95 282.7 105.05
L 282.7 98.8 294.45 98.8 294.45 105.05
Q 294.45 106.95 294 107.7 293.5 108.45 292.05 108.45
L 292.05 109.05 299.75 109.05 299.75 108.45
Q 298.35 108.45 297.85 107.7 297.3 106.95 297.3 105.05
L 297.3 91.6
Q 297.3 89.65 297.85 88.9 298.35 88.15 299.75 88.15
L 299.75 87.55 292.05 87.55 292.05 88.15
Q 293.45 88.15 293.95 88.9 294.45 89.6 294.45 91.6
L 294.45 97.75 282.7 97.75 282.7 91.6
Q 282.7 89.7 283.25 88.95 283.8 88.15 285.2 88.15
L 285.2 87.55 277.45 87.55 277.45 88.15
Q 278.85 88.15 279.35 88.9
M 245.3 87.3
L 243.1 87.3 237.15 105.05
Q 236.5 107 235.8 107.65 235.15 108.25 233.9 108.45
L 233.9 109.05 239.5 109.05 239.5 108.45
Q 237.8 108.4 237.8 107.05 237.8 106.3 238.35 104.7
L 239.8 100.35 246.7 100.35 248.7 106.35
Q 248.9 106.8 248.9 107.15 248.9 108.45 247.05 108.45
L 247.05 109.05 254.65 109.05 254.65 108.45
Q 253.3 108.45 252.7 107.95 252.1 107.5 251.55 105.85
L 245.3 87.3
M 243.25 89.9
L 246.3 99.05 240.25 99.05 243.25 89.9
M 259.65 88.6
L 262.75 88.6 262.75 105.05
Q 262.75 106.85 262.25 107.65 261.75 108.45 260.35 108.45
L 260.35 109.05 267.95 109.05 267.95 108.45
Q 266.55 108.45 266.1 107.75 265.6 107.05 265.6 105.15
L 265.6 88.6 268.85 88.6
Q 271 88.6 272 89.25 273.05 89.9 273.45 91.65
L 273.85 91.65 273.85 86.75 273.2 86.75
Q 272.2 87.55 269.75 87.55
L 258.5 87.55
Q 256.15 87.55 255.25 86.75
L 254.65 86.75 254.65 91.65 255.25 91.65
Q 255.4 90 256.4 89.3 257.45 88.6 259.65 88.6
M 324.15 87.55
L 324.15 88.15
Q 325.55 88.15 326.05 88.9 326.55 89.6 326.55 91.5
L 326.55 105.05
Q 326.55 106.95 326.05 107.7 325.55 108.45 324.15 108.45
L 324.15 109.05 331.85 109.05 331.85 108.45
Q 330.5 108.45 329.95 107.7 329.4 106.95 329.4 105.05
L 329.4 99.1 331.15 99.1
Q 332.55 99.1 333.7 100.05 334.85 100.95 336.9 104.3 338.85 107.4 340.2 109.05
L 344.65 109.05 344.65 108.45
Q 343.6 108.35 342.65 107.5 341.7 106.6 340 103.8 338.45 101.3 337.55 100.2 336.6 99.1 335.65 98.5 340.1 97.15 340.1 93.15 340.1 90.7 338.15 89.15 336.2 87.55 332.95 87.55
L 324.15 87.55
M 329.4 88.35
L 331.65 88.35
Q 334.1 88.35 335.6 89.7 337.1 91.05 337.1 93.25 337.1 95.5 335.75 96.85 334.4 98.2 332.05 98.2
L 329.4 98.2 329.4 88.35 Z"/>
</g>

<g id="Layer1_2_MEMBER_0_MEMBER_0_FILL">
<path fill="#27528D" stroke="none" d="
M -57.3 -41.85
Q -56.15 -41.1 -55.7 -39.1
L -55.2 -39.1 -55.2 -44.65 -55.95 -44.65
Q -57.05 -43.75 -59.8 -43.75
L -72.55 -43.75
Q -75.25 -43.75 -76.2 -44.65
L -76.95 -44.65 -76.95 -39.1 -76.2 -39.1
Q -76.05 -40.95 -74.9 -41.75 -73.75 -42.6 -71.25 -42.6
L -67.7 -42.6 -67.7 -24
Q -67.7 -21.9 -68.3 -21.05 -68.9 -20.15 -70.5 -20.15
L -70.5 -19.45 -61.85 -19.45 -61.85 -20.15
Q -63.45 -20.15 -63.95 -20.9 -64.5 -21.7 -64.5 -23.9
L -64.5 -42.6 -60.8 -42.6
Q -58.5 -42.6 -57.3 -41.85
M -43.7 -44.05
L -46.15 -44.05 -52.9 -23.95
Q -53.7 -21.75 -54.4 -21.05 -55.15 -20.35 -56.5 -20.15
L -56.5 -19.45 -50.25 -19.45 -50.25 -20.15
Q -52.15 -20.2 -52.15 -21.75 -52.15 -22.55 -51.55 -24.4
L -49.9 -29.3 -42.05 -29.3 -39.8 -22.55
Q -39.6 -22 -39.6 -21.6 -39.6 -20.15 -41.7 -20.15
L -41.7 -19.45 -33.15 -19.45 -33.15 -20.15
Q -34.65 -20.15 -35.35 -20.7 -36 -21.25 -36.6 -23.1
L -43.7 -44.05
M -42.55 -30.8
L -49.45 -30.8 -46 -41.1 -42.55 -30.8
M 59.2 -41.95
Q 56.95 -43.75 53.25 -43.75
L 43.3 -43.75 43.3 -43.05
Q 44.95 -43.05 45.5 -42.25 46.05 -41.4 46.05 -39.25
L 46.05 -24
Q 46.05 -21.85 45.5 -21 44.9 -20.15 43.3 -20.15
L 43.3 -19.45 52.05 -19.45 52.05 -20.15
Q 50.5 -20.15 49.9 -21 49.25 -21.85 49.25 -24
L 49.25 -30.7 51.25 -30.7
Q 52.85 -30.7 54.15 -29.65 55.45 -28.65 57.8 -24.85 59.95 -21.3 61.5 -19.45
L 66.45 -19.45 66.45 -20.15
Q 65.3 -20.25 64.25 -21.25 63.2 -22.25 61.25 -25.4 59.55 -28.25 58.5 -29.5 57.45 -30.75 56.35 -31.45 61.35 -32.9 61.35 -37.4 61.35 -40.2 59.2 -41.95
M 51.8 -42.85
Q 54.6 -42.85 56.3 -41.3 58 -39.8 58 -37.3 58 -34.8 56.45 -33.25 54.95 -31.7 52.25 -31.7
L 49.25 -31.7 49.25 -42.85 51.8 -42.85
M 76.95 -43.75
L 68.2 -43.75 68.2 -43.05
Q 69.8 -43.05 70.4 -42.25 70.95 -41.4 70.95 -39.2
L 70.95 -24
Q 70.95 -21.8 70.35 -21 69.8 -20.15 68.2 -20.15
L 68.2 -19.45 76.95 -19.45 76.95 -20.15
Q 75.4 -20.15 74.8 -21 74.2 -21.85 74.2 -24
L 74.2 -39.2
Q 74.2 -41.35 74.8 -42.2 75.4 -43.05 76.95 -43.05
L 76.95 -43.75
M 1.55 -43.05
L 1.55 -43.75 -5.8 -43.75 -5.8 -43.1
Q -3.4 -43.1 -3.4 -41 -3.4 -39.95 -4 -38.3
L -8.95 -24.65 -14.65 -40.05
Q -15 -41 -15 -41.6 -15 -43.05 -12.65 -43.05
L -12.65 -43.75 -21.55 -43.75 -21.55 -43.05
Q -20.15 -43.05 -19.4 -42.45 -18.65 -41.85 -18.15 -40.4
L -17.6 -38.8 -22.75 -24.65 -28.45 -40.1
Q -28.75 -40.95 -28.75 -41.5 -28.75 -42.8 -26.65 -43.05
L -26.65 -43.75 -35.65 -43.75 -35.65 -43.05
Q -34.25 -43.05 -33.7 -42.75 -33.1 -42.45 -32.6 -41.65 -32.15 -40.85 -31.55 -39.2
L -24.1 -19.1 -23.4 -19.1 -16.95 -37.05 -10.35 -19.1 -9.6 -19.1 -2.75 -38.1
Q -1.8 -40.8 -0.85 -41.85 0.1 -42.95 1.55 -43.05
M 29.2 -43.05
L 29.2 -43.75 20.5 -43.75 20.5 -43.05
Q 22.05 -43.05 22.65 -42.25 23.2 -41.4 23.2 -39.2
L 23.2 -32.25 9.95 -32.25 9.95 -39.2
Q 9.95 -41.3 10.55 -42.15 11.2 -43.05 12.75 -43.05
L 12.75 -43.75 4 -43.75 4 -43.05
Q 5.55 -43.05 6.15 -42.25 6.75 -41.4 6.75 -39.2
L 6.75 -24
Q 6.75 -21.9 6.15 -21.05 5.6 -20.15 4 -20.15
L 4 -19.45 12.75 -19.45 12.75 -20.15
Q 11.2 -20.15 10.55 -21 9.95 -21.85 9.95 -24
L 9.95 -31.1 23.2 -31.1 23.2 -24
Q 23.2 -21.85 22.65 -21 22.1 -20.15 20.5 -20.15
L 20.5 -19.45 29.2 -19.45 29.2 -20.15
Q 27.65 -20.15 27.05 -21 26.45 -21.85 26.45 -24
L 26.45 -39.2
Q 26.45 -41.35 27.05 -42.2 27.65 -43.05 29.2 -43.05
M 31.95 -43.05
Q 33.55 -43.05 34.15 -42.25 34.7 -41.4 34.7 -39.2
L 34.7 -24
Q 34.7 -21.8 34.1 -21 33.55 -20.15 31.95 -20.15
L 31.95 -19.45 40.7 -19.45 40.7 -20.15
Q 39.15 -20.15 38.55 -21 37.95 -21.85 37.95 -24
L 37.95 -39.2
Q 37.95 -41.35 38.55 -42.2 39.15 -43.05 40.7 -43.05
L 40.7 -43.75 31.95 -43.75 31.95 -43.05 Z"/>
</g>

<g id="Layer1_2_MEMBER_1_FILL">
<path fill="#27528D" stroke="none" d="
M 255.05 123.35
Q 254.4 123.1 253.85 123.1 252.5 123.1 251.5 124 250.6 124.9 250.6 126.2 250.6 127.05 251.05 127.75 251.45 128.5 252.15 128.85 252.9 129.25 253.85 129.25 255.25 129.25 256.1 128.85
L 256.1 127.6
Q 256.1 127.2 256.25 127 256.35 126.8 256.7 126.7
L 256.7 126.55 254.25 126.55 254.25 126.7
Q 254.85 126.85 254.85 127.45
L 254.85 128.3
Q 254.85 128.9 253.95 128.9 253.05 128.9 252.55 128.25 252 127.6 252 126.3 252 124.95 252.55 124.2 253.05 123.45 253.95 123.45 254.6 123.45 255.15 123.85 255.7 124.2 255.95 124.9
L 256.1 124.9 256.1 123.25 255.95 123.25
Q 255.75 123.45 255.5 123.45 255.35 123.45 255.05 123.35
M 280.05 123.25
L 275.7 123.25 275.7 123.4
Q 276.1 123.5 276.25 123.65 276.4 123.8 276.4 124.25
L 276.4 128
Q 276.4 128.5 276.25 128.65 276.1 128.85 275.7 128.95
L 275.7 129.1 280.15 129.1 280.25 127.7 280.05 127.7
Q 279.7 128.75 278.85 128.75
L 278.5 128.75
Q 278.05 128.75 277.9 128.6 277.7 128.45 277.7 128.05
L 277.7 126.35 278.75 126.35
Q 279.45 126.35 279.55 127.1
L 279.75 127.1 279.75 125.25 279.55 125.25
Q 279.45 125.65 279.25 125.85 279.1 126 278.75 126
L 277.7 126 277.7 123.6 278.85 123.6
Q 279.3 123.6 279.55 123.8 279.75 124 279.9 124.55
L 280.05 124.55 280.05 123.25
M 267 123.25
L 267 123.4
Q 267.45 123.55 267.6 123.7 267.75 123.85 267.75 124.25
L 267.75 128
Q 267.75 128.4 267.7 128.5 267.65 128.65 267.5 128.75 267.35 128.85 267 128.95
L 267 129.1 269.75 129.1 269.75 128.95
Q 269.3 128.8 269.2 128.65 269.05 128.5 269.05 128.1
L 269.05 126.25 271.9 126.25 271.9 128
Q 271.9 128.5 271.75 128.65 271.6 128.85 271.2 128.95
L 271.2 129.1 273.95 129.1 273.95 128.95
Q 273.5 128.8 273.35 128.65 273.2 128.5 273.2 128.1
L 273.2 124.35
Q 273.2 123.85 273.35 123.7 273.45 123.55 273.95 123.4
L 273.95 123.25 271.2 123.25 271.2 123.4
Q 271.65 123.55 271.75 123.7 271.9 123.85 271.9 124.25
L 271.9 125.85 269.05 125.85 269.05 124.2
Q 269.05 123.85 269.2 123.7 269.35 123.5 269.75 123.4
L 269.75 123.25 267 123.25
M 263.4 123.6
L 264 123.6
Q 264.55 123.6 264.85 123.8 265.15 124.05 265.3 124.55
L 265.45 124.55 265.4 123.15 265.25 123.15
Q 265.05 123.25 264.65 123.25
L 260.9 123.25
Q 260.5 123.25 260.3 123.15
L 260.1 123.15 260.05 124.55 260.25 124.55
Q 260.4 124.05 260.7 123.8 261 123.6 261.55 123.6
L 262.1 123.6 262.1 128.05
Q 262.1 128.5 261.95 128.7 261.8 128.85 261.4 128.95
L 261.4 129.1 264.15 129.1 264.15 128.95
Q 263.7 128.85 263.55 128.7 263.4 128.5 263.4 128.05
L 263.4 123.6
M 297.3 123.4
Q 297.7 123.5 297.85 123.65 298 123.8 298 124.25
L 298 128
Q 298 128.5 297.85 128.65 297.7 128.85 297.3 128.95
L 297.3 129.1 301.75 129.1 301.85 127.7 301.65 127.7
Q 301.3 128.75 300.45 128.75
L 300.1 128.75
Q 299.65 128.75 299.5 128.6 299.3 128.45 299.3 128.05
L 299.3 126.35 300.35 126.35
Q 301.05 126.35 301.15 127.1
L 301.35 127.1 301.35 125.25 301.15 125.25
Q 301.05 125.65 300.85 125.85 300.7 126 300.35 126
L 299.3 126 299.3 123.6 300.45 123.6
Q 300.9 123.6 301.15 123.8 301.35 124 301.5 124.55
L 301.65 124.55 301.65 123.25 297.3 123.25 297.3 123.4
M 287.05 123.6
L 288.25 123.6
Q 288.7 123.6 288.95 123.8 289.15 124 289.3 124.55
L 289.45 124.55 289.45 123.25 285.05 123.25 285.05 123.4
Q 285.45 123.5 285.6 123.65 285.75 123.8 285.75 124.25
L 285.75 128
Q 285.75 128.5 285.6 128.65 285.45 128.85 285.05 128.95
L 285.05 129.1 289.55 129.1 289.65 127.7 289.45 127.7
Q 289.1 128.75 288.25 128.75
L 287.9 128.75
Q 287.4 128.75 287.25 128.6 287.05 128.45 287.05 128.05
L 287.05 126.35 288.15 126.35
Q 288.85 126.35 288.95 127.1
L 289.15 127.1 289.15 125.25 288.95 125.25
Q 288.85 125.65 288.65 125.85 288.5 126 288.15 126
L 287.05 126 287.05 123.6
M 291.2 123.25
L 291.2 123.4
Q 291.65 123.55 291.8 123.7 291.95 123.85 291.95 124.25
L 291.95 128
Q 291.95 128.5 291.8 128.65 291.65 128.8 291.2 128.95
L 291.2 129.1 295.65 129.1 295.85 127.6 295.65 127.6
Q 295.3 128.25 295 128.5 294.7 128.75 294.15 128.75 293.6 128.75 293.4 128.65 293.2 128.5 293.2 128.15
L 293.2 124.2
Q 293.2 123.85 293.35 123.7 293.5 123.55 293.95 123.4
L 293.95 123.25 291.2 123.25
M 313.5 123.25
L 313.5 123.4
Q 313.9 123.5 314.05 123.65 314.2 123.8 314.2 124.25
L 314.2 128
Q 314.2 128.5 314.05 128.65 313.9 128.85 313.5 128.95
L 313.5 129.1 317.95 129.1 318.05 127.7 317.85 127.7
Q 317.5 128.75 316.65 128.75
L 316.3 128.75
Q 315.85 128.75 315.7 128.6 315.5 128.45 315.5 128.05
L 315.5 126.35 316.55 126.35
Q 317.25 126.35 317.35 127.1
L 317.55 127.1 317.55 125.25 317.35 125.25
Q 317.25 125.65 317.05 125.85 316.9 126 316.55 126
L 315.5 126 315.5 123.6 316.65 123.6
Q 317.1 123.6 317.35 123.8 317.55 124 317.7 124.55
L 317.85 124.55 317.85 123.25 313.5 123.25
M 311.2 123.4
L 311.2 123.25 309.25 123.25 307.7 127.1 306.15 123.25 304 123.25 304 123.4
Q 304.5 123.45 304.85 123.8
L 304.25 127.65
Q 304.15 128.35 303.95 128.6 303.7 128.9 303.25 128.95
L 303.25 129.1 305.35 129.1 305.35 128.95
Q 304.65 128.9 304.65 128.1 304.65 127.95 304.65 127.75
L 305.15 124.3 307.1 129.1 307.35 129.1 309.25 124.3 309.75 127.65
Q 309.75 127.9 309.75 128.1 309.75 128.45 309.6 128.65 309.45 128.85 309.1 128.95
L 309.1 129.1 312 129.1 312 128.95
Q 311.55 128.85 311.35 128.65 311.15 128.4 311.1 128
L 310.55 124.35
Q 310.55 124.25 310.55 124.1 310.55 123.8 310.7 123.65 310.85 123.5 311.2 123.4
M 195.65 126.2
Q 195.65 124.85 194.75 123.95 193.85 123.1 192.45 123.1 191.05 123.1 190.15 123.95 189.25 124.85 189.25 126.2 189.25 127.5 190.15 128.4 191.05 129.25 192.45 129.25 193.85 129.25 194.75 128.4 195.65 127.5 195.65 126.2
M 194.25 126.2
Q 194.25 127.5 193.75 128.2 193.3 128.9 192.45 128.9 191.6 128.9 191.1 128.2 190.65 127.5 190.65 126.25 190.65 124.85 191.1 124.15 191.55 123.45 192.45 123.45 193.3 123.45 193.8 124.15 194.25 124.85 194.25 126.2
M 185.5 123.6
L 186.5 123.6
Q 186.9 123.6 187.15 123.75 187.4 123.95 187.55 124.35
L 187.7 124.35 187.6 123.25 183.45 123.25 183.45 123.4
Q 183.9 123.55 184.05 123.7 184.2 123.85 184.2 124.2
L 184.2 128
Q 184.2 128.5 184.05 128.7 183.9 128.85 183.45 128.95
L 183.45 129.1 186.2 129.1 186.2 128.95
Q 185.8 128.85 185.65 128.7 185.5 128.5 185.5 128.1
L 185.5 126.3 186.4 126.3
Q 186.8 126.3 187 126.5 187.25 126.65 187.3 127.05
L 187.45 127.05 187.45 125.25 187.3 125.25
Q 187.2 125.65 187 125.8 186.8 126 186.4 126
L 185.5 126 185.5 123.6
M 203.6 128.95
Q 203.25 128.9 203.05 128.65 202.8 128.45 202.4 127.6 201.9 126.75 201.7 126.45 201.45 126.2 201.25 126.15
L 201.25 126.1
Q 201.8 125.95 202.1 125.6 202.4 125.2 202.4 124.7 202.4 124 201.85 123.65 201.25 123.25 200.15 123.25
L 197.3 123.25 197.3 123.4
Q 197.75 123.5 197.9 123.65 198.05 123.8 198.05 124.2
L 198.05 128.2
Q 198.05 128.85 197.3 128.95
L 197.3 129.1 200.15 129.1 200.15 128.95
Q 199.75 128.85 199.55 128.7 199.4 128.5 199.4 128.1
L 199.4 126.3
Q 199.95 126.3 200.15 126.4 200.35 126.5 200.5 126.75 200.7 126.95 201.05 127.7 201.55 128.7 201.9 129.1
L 203.6 129.1 203.6 128.95
M 199.4 123.6
L 199.8 123.6
Q 201 123.6 201 124.75 201 125.4 200.7 125.7 200.4 126 199.7 126 199.55 126 199.4 126
L 199.4 123.6
M 215.6 123.35
Q 214.9 123.1 214.35 123.1 213 123.1 212.1 124 211.2 124.9 211.2 126.25 211.2 127.6 212.05 128.4 212.85 129.25 214.2 129.25 215.7 129.25 216.6 128.05
L 216.6 127.75
Q 216.1 128.25 215.7 128.45 215.25 128.7 214.7 128.7 213.7 128.7 213.15 127.95 212.6 127.25 212.6 125.95 212.6 124.8 213.05 124.1 213.55 123.45 214.35 123.45 215.1 123.45 215.65 123.9 216.15 124.4 216.35 125.3
L 216.5 125.3 216.5 123.15 216.35 123.15
Q 216.2 123.45 216 123.45 215.9 123.45 215.6 123.35
M 221.65 123.1
L 220.85 123.1 219.15 127.6
Q 218.9 128.25 218.65 128.55 218.4 128.85 218.05 128.95
L 218.05 129.1 219.95 129.1 219.95 128.95
Q 219.35 128.75 219.35 128.4 219.35 128.2 219.45 127.9
L 219.75 127.15 221.85 127.15 222.2 128.05
Q 222.3 128.35 222.3 128.5 222.3 128.65 222.15 128.75 222 128.85 221.65 128.95
L 221.65 129.1 224.5 129.1 224.5 128.95
Q 224.15 128.9 223.9 128.65 223.65 128.4 223.4 127.8
L 221.65 123.1
M 220.8 124.35
L 221.7 126.7 219.95 126.7 220.8 124.35
M 205 123.4
Q 205.4 123.5 205.55 123.65 205.7 123.8 205.7 124.25
L 205.7 128
Q 205.7 128.5 205.55 128.65 205.4 128.85 205 128.95
L 205 129.1 209.45 129.1 209.55 127.7 209.35 127.7
Q 209 128.75 208.15 128.75
L 207.8 128.75
Q 207.35 128.75 207.2 128.6 207 128.45 207 128.05
L 207 126.35 208.05 126.35
Q 208.75 126.35 208.85 127.1
L 209.05 127.1 209.05 125.25 208.85 125.25
Q 208.75 125.65 208.55 125.85 208.4 126 208.05 126
L 207 126 207 123.6 208.15 123.6
Q 208.6 123.6 208.85 123.8 209.05 124 209.2 124.55
L 209.35 124.55 209.35 123.25 205 123.25 205 123.4
M 242.65 123.25
L 242.65 123.4
Q 242.85 123.45 243 123.55 243.1 123.65 243.45 124
L 243.45 127.95
Q 243.45 128.45 243.25 128.65 243.1 128.85 242.7 128.95
L 242.7 129.1 244.7 129.1 244.7 128.95
Q 244.2 128.85 244 128.65 243.85 128.45 243.85 128
L 243.85 124.45 248.05 129.15 248.25 129.15 248.25 124.4
Q 248.25 123.45 249.1 123.4
L 249.1 123.25 247.1 123.25 247.1 123.4
Q 247.55 123.5 247.7 123.75 247.85 123.95 247.85 124.55
L 247.85 127.15 244.45 123.25 242.65 123.25
M 241.1 123.4
L 241.1 123.25 238.35 123.25 238.35 123.4
Q 238.8 123.55 238.95 123.7 239.1 123.85 239.1 124.25
L 239.1 128
Q 239.1 128.4 239 128.5 238.95 128.65 238.8 128.75 238.65 128.85 238.35 128.95
L 238.35 129.1 241.1 129.1 241.1 128.95
Q 240.65 128.8 240.5 128.65 240.35 128.5 240.35 128.1
L 240.35 124.35
Q 240.35 123.85 240.5 123.7 240.65 123.5 241.1 123.4
M 232.15 123.25
Q 231.75 123.25 231.55 123.15
L 231.35 123.15 231.3 124.55 231.5 124.55
Q 231.65 124.05 231.95 123.8 232.25 123.6 232.8 123.6
L 233.35 123.6 233.35 128.05
Q 233.35 128.5 233.2 128.7 233.05 128.85 232.65 128.95
L 232.65 129.1 235.45 129.1 235.45 128.95
Q 235 128.85 234.85 128.7 234.7 128.5 234.7 128.05
L 234.7 123.6 235.3 123.6
Q 235.85 123.6 236.15 123.8 236.45 124.05 236.6 124.55
L 236.75 124.55 236.7 123.15 236.55 123.15
Q 236.35 123.25 235.95 123.25
L 232.15 123.25
M 229.4 123.1
L 229.25 123.1
Q 229.1 123.25 228.95 123.25 228.8 123.25 228.45 123.2 228.1 123.1 227.85 123.1 227.05 123.1 226.5 123.6 226 124.05 226 124.8 226 125.15 226.15 125.5 226.25 125.8 226.5 126.05 226.8 126.3 227.55 126.75 228.4 127.25 228.6 127.55 228.8 127.8 228.8 128.1 228.8 128.45 228.5 128.7 228.2 128.9 227.7 128.9 227.1 128.9 226.7 128.55 226.3 128.15 226.15 127.45
L 226 127.45 226 129.2 226.15 129.2
Q 226.25 129 226.45 129 226.55 129 226.9 129.1 227.45 129.25 227.9 129.25 228.65 129.25 229.2 128.8 229.75 128.35 229.75 127.55 229.75 127 229.45 126.6 229.25 126.3 229 126.1 228.8 125.9 228 125.45 227.25 124.95 227.15 124.85 227 124.7 226.9 124.55 226.85 124.4 226.85 124.2 226.85 123.9 227.1 123.65 227.4 123.45 227.8 123.45 228.25 123.45 228.65 123.8 229.1 124.15 229.25 124.65
L 229.4 124.65 229.4 123.1
M 337.4 123.1
L 337.25 123.1
Q 337.1 123.25 336.95 123.25 336.8 123.25 336.45 123.2 336.1 123.1 335.85 123.1 335.05 123.1 334.5 123.6 334 124.05 334 124.8 334 125.15 334.15 125.5 334.25 125.8 334.5 126.05 334.8 126.3 335.55 126.75 336.4 127.25 336.6 127.55 336.8 127.8 336.8 128.1 336.8 128.45 336.5 128.7 336.2 128.9 335.7 128.9 335.1 128.9 334.7 128.55 334.3 128.15 334.15 127.45
L 334 127.45 334 129.2 334.15 129.2
Q 334.25 129 334.45 129 334.55 129 334.9 129.1 335.45 129.25 335.9 129.25 336.65 129.25 337.2 128.8 337.75 128.35 337.75 127.55 337.75 127 337.45 126.6 337.25 126.3 337 126.1 336.8 125.9 336 125.45 335.25 124.95 335.15 124.85 335 124.7 334.9 124.55 334.85 124.4 334.85 124.2 334.85 123.9 335.1 123.65 335.4 123.45 335.8 123.45 336.25 123.45 336.65 123.8 337.1 124.15 337.25 124.65
L 337.4 124.65 337.4 123.1
M 325.85 123.4
L 325.85 123.25 323.85 123.25 323.85 123.4
Q 324.3 123.5 324.45 123.75 324.6 123.95 324.6 124.55
L 324.6 127.15 321.15 123.25 319.35 123.25 319.35 123.4
Q 319.55 123.45 319.7 123.55 319.8 123.65 320.15 124
L 320.15 127.95
Q 320.15 128.45 319.95 128.65 319.8 128.85 319.4 128.95
L 319.4 129.1 321.4 129.1 321.4 128.95
Q 320.9 128.85 320.7 128.65 320.55 128.45 320.55 128
L 320.55 124.45 324.8 129.15 325 129.15 325 124.4
Q 325 123.45 325.85 123.4
M 330.4 123.6
L 331 123.6
Q 331.55 123.6 331.85 123.8 332.15 124.05 332.3 124.55
L 332.45 124.55 332.4 123.15 332.25 123.15
Q 332.05 123.25 331.65 123.25
L 327.9 123.25
Q 327.5 123.25 327.3 123.15
L 327.1 123.15 327.05 124.55 327.25 124.55
Q 327.4 124.05 327.7 123.8 328 123.6 328.55 123.6
L 329.1 123.6 329.1 128.05
Q 329.1 128.5 328.95 128.7 328.8 128.85 328.4 128.95
L 328.4 129.1 331.15 129.1 331.15 128.95
Q 330.7 128.85 330.55 128.7 330.4 128.5 330.4 128.05
L 330.4 123.6 Z"/>
</g>

<path id="logo_0_Layer0_0_MEMBER_0_1_STROKES" stroke="#8CABCA" stroke-width="1" stroke-linejoin="round" stroke-linecap="round" fill="none" d="
M 23.05 18.6
Q 26.1 20.8 30.4 19.35 34.8 17.9 38.1 13.45 41.45 9.15 41.65 4.45 41.8 -0.15 38.9 -2.45 36 -4.6 31.55 -3.1 27.25 -1.5 23.95 2.8 20.65 7.2 20.4 11.8 20.2 16.4 23.05 18.6 Z
M -23.05 18.6
Q -26.1 20.8 -30.4 19.35 -34.8 17.9 -38.1 13.45 -41.45 9.15 -41.65 4.45 -41.8 -0.15 -38.9 -2.45 -36 -4.6 -31.55 -3.1 -27.25 -1.5 -23.95 2.8 -20.65 7.2 -20.4 11.8 -20.2 16.4 -23.05 18.6 Z"/>

<path id="Layer1_2_MEMBER_0_1_STROKES" stroke="#8CABCA" stroke-width="1" stroke-linejoin="round" stroke-linecap="round" fill="none" d="
M 202.62763061523435 75.33836669921875
L 386.0175842285156 75.33836669921875"/>
</defs>

<g transform="matrix( 1.1938629150390625, 0, 0, 1, 219.95,77.75) ">
<use xlink:href="#Layer1_0_FILL"/>
</g>

<g transform="matrix( 0.9087982177734375, 0, 0, 0.9087982177734375, 89.65,70.65) ">
<g transform="matrix( 1, 0, 0, 1, 0,0) ">
<use xlink:href="#logo_0_Layer0_0_FILL"/>
</g>

<g transform="matrix( 1, 0, 0, 1, 0,0) ">
<use xlink:href="#logo_0_Layer0_0_MEMBER_0_1_STROKES"/>
</g>
</g>

<g transform="matrix( 1.1497802734375, 0, 0, 1.1497802734375, -6,-11.7) ">
<use xlink:href="#Layer1_2_MEMBER_0_FILL"/>

<use xlink:href="#Layer1_2_MEMBER_0_1_STROKES" transform="matrix( 0.869720458984375, 0, 0, 0.869720458984375, 5.2,10.15) "/>
</g>

<g transform="matrix( 1.15301513671875, 0, 0, 1.15301513671875, 294.3,86.35) ">
<use xlink:href="#Layer1_2_MEMBER_0_MEMBER_0_FILL"/>
</g>

<g transform="matrix( 1.178802490234375, 0, 0, 1.178802490234375, -11.7,-20.1) ">
<use xlink:href="#Layer1_2_MEMBER_1_FILL"/>
</g>
</svg>
