
<svg xmlns="http://www.w3.org/2000/svg" version="1.1" xmlns:xlink="http://www.w3.org/1999/xlink" preserveAspectRatio="none" x="0px" y="0px" width="192px" height="100px" viewBox="0 0 192 100">
<defs>
<g id="Layer0_0_MEMBER_1_FILL">
<path fill="#27528D" stroke="none" d="
M 614.8 230
L 614.05 230
Q 612.95 230.9 610.2 230.9
L 597.45 230.9
Q 594.75 230.9 593.8 230
L 593.05 230 593.05 235.55 593.8 235.55
Q 593.95 233.7 595.1 232.9 596.25 232.05 598.75 232.05
L 602.3 232.05 602.3 250.65
Q 602.3 252.75 601.7 253.6 601.1 254.5 599.5 254.5
L 599.5 255.2 608.15 255.2 608.15 254.5
Q 606.55 254.5 606.05 253.75 605.5 252.95 605.5 250.75
L 605.5 232.05 609.2 232.05
Q 611.5 232.05 612.7 232.8 613.85 233.55 614.3 235.55
L 614.8 235.55 614.8 230
M 626.3 230.6
L 623.85 230.6 617.1 250.7
Q 616.3 252.9 615.6 253.6 614.85 254.3 613.5 254.5
L 613.5 255.2 619.75 255.2 619.75 254.5
Q 617.85 254.45 617.85 252.9 617.85 252.1 618.45 250.25
L 620.1 245.35 627.95 245.35 630.2 252.1
Q 630.4 252.65 630.4 253.05 630.4 254.5 628.3 254.5
L 628.3 255.2 636.85 255.2 636.85 254.5
Q 635.35 254.5 634.65 253.95 634 253.4 633.4 251.55
L 626.3 230.6
M 627.45 243.85
L 620.55 243.85 624 233.55 627.45 243.85
M 664.2 230.9
L 664.2 231.55
Q 666.6 231.55 666.6 233.65 666.6 234.7 666 236.35
L 661.05 250 655.35 234.6
Q 655 233.65 655 233.05 655 231.6 657.35 231.6
L 657.35 230.9 648.45 230.9 648.45 231.6
Q 649.85 231.6 650.6 232.2 651.35 232.8 651.85 234.25
L 652.4 235.85 647.25 250 641.55 234.55
Q 641.25 233.7 641.25 233.15 641.25 231.85 643.35 231.6
L 643.35 230.9 634.35 230.9 634.35 231.6
Q 635.75 231.6 636.3 231.9 636.9 232.2 637.4 233 637.85 233.8 638.45 235.45
L 645.9 255.55 646.6 255.55 653.05 237.6 659.65 255.55 660.4 255.55 667.25 236.55
Q 668.2 233.85 669.15 232.8 670.1 231.7 671.55 231.6
L 671.55 230.9 664.2 230.9
M 699.2 231.6
L 699.2 230.9 690.5 230.9 690.5 231.6
Q 692.05 231.6 692.65 232.4 693.2 233.25 693.2 235.45
L 693.2 242.4 679.95 242.4 679.95 235.45
Q 679.95 233.35 680.55 232.5 681.2 231.6 682.75 231.6
L 682.75 230.9 674 230.9 674 231.6
Q 675.55 231.6 676.15 232.4 676.75 233.25 676.75 235.45
L 676.75 250.65
Q 676.75 252.75 676.15 253.6 675.6 254.5 674 254.5
L 674 255.2 682.75 255.2 682.75 254.5
Q 681.2 254.5 680.55 253.65 679.95 252.8 679.95 250.65
L 679.95 243.55 693.2 243.55 693.2 250.65
Q 693.2 252.8 692.65 253.65 692.1 254.5 690.5 254.5
L 690.5 255.2 699.2 255.2 699.2 254.5
Q 697.65 254.5 697.05 253.65 696.45 252.8 696.45 250.65
L 696.45 235.45
Q 696.45 233.3 697.05 232.45 697.65 231.6 699.2 231.6
M 701.95 230.9
L 701.95 231.6
Q 703.55 231.6 704.15 232.4 704.7 233.25 704.7 235.45
L 704.7 250.65
Q 704.7 252.85 704.1 253.65 703.55 254.5 701.95 254.5
L 701.95 255.2 710.7 255.2 710.7 254.5
Q 709.15 254.5 708.55 253.65 707.95 252.8 707.95 250.65
L 707.95 235.45
Q 707.95 233.3 708.55 232.45 709.15 231.6 710.7 231.6
L 710.7 230.9 701.95 230.9
M 731.35 237.25
Q 731.35 234.45 729.2 232.7 726.95 230.9 723.25 230.9
L 713.3 230.9 713.3 231.6
Q 714.95 231.6 715.5 232.4 716.05 233.25 716.05 235.4
L 716.05 250.65
Q 716.05 252.8 715.5 253.65 714.9 254.5 713.3 254.5
L 713.3 255.2 722.05 255.2 722.05 254.5
Q 720.5 254.5 719.9 253.65 719.25 252.8 719.25 250.65
L 719.25 243.95 721.25 243.95
Q 722.85 243.95 724.15 245 725.45 246 727.8 249.8 729.95 253.35 731.5 255.2
L 736.45 255.2 736.45 254.5
Q 735.3 254.4 734.25 253.4 733.2 252.4 731.25 249.25 729.55 246.4 728.5 245.15 727.45 243.9 726.35 243.2 731.35 241.75 731.35 237.25
M 719.25 231.8
L 721.8 231.8
Q 724.6 231.8 726.3 233.35 728 234.85 728 237.35 728 239.85 726.45 241.4 724.95 242.95 722.25 242.95
L 719.25 242.95 719.25 231.8
M 746.95 230.9
L 738.2 230.9 738.2 231.6
Q 739.8 231.6 740.4 232.4 740.95 233.25 740.95 235.45
L 740.95 250.65
Q 740.95 252.85 740.35 253.65 739.8 254.5 738.2 254.5
L 738.2 255.2 746.95 255.2 746.95 254.5
Q 745.4 254.5 744.8 253.65 744.2 252.8 744.2 250.65
L 744.2 235.45
Q 744.2 233.3 744.8 232.45 745.4 231.6 746.95 231.6
L 746.95 230.9 Z"/>
</g>

<g id="Layer0_0_MEMBER_2_FILL">
<path fill="#27528D" stroke="none" d="
M -56.05 33.6
L -56.05 33.75
Q -55.65 33.85 -55.5 34 -55.35 34.15 -55.35 34.6
L -55.35 38.35
Q -55.35 38.85 -55.5 39 -55.65 39.2 -56.05 39.3
L -56.05 39.45 -51.6 39.45 -51.5 38.05 -51.7 38.05
Q -52.05 39.1 -52.9 39.1
L -53.25 39.1
Q -53.7 39.1 -53.85 38.95 -54.05 38.8 -54.05 38.4
L -54.05 36.7 -53 36.7
Q -52.3 36.7 -52.2 37.45
L -52 37.45 -52 35.6 -52.2 35.6
Q -52.3 36 -52.5 36.2 -52.65 36.35 -53 36.35
L -54.05 36.35 -54.05 33.95 -52.9 33.95
Q -52.45 33.95 -52.2 34.15 -52 34.35 -51.85 34.9
L -51.7 34.9 -51.7 33.6 -56.05 33.6
M -48 34.45
Q -47.5 33.8 -46.7 33.8 -45.95 33.8 -45.4 34.25 -44.9 34.75 -44.7 35.65
L -44.55 35.65 -44.55 33.5 -44.7 33.5
Q -44.85 33.8 -45.05 33.8 -45.15 33.8 -45.45 33.7 -46.15 33.45 -46.7 33.45 -48.05 33.45 -48.95 34.35 -49.85 35.25 -49.85 36.6 -49.85 37.95 -49 38.75 -48.2 39.6 -46.85 39.6 -45.35 39.6 -44.45 38.4
L -44.45 38.1
Q -44.95 38.6 -45.35 38.8 -45.8 39.05 -46.35 39.05 -47.35 39.05 -47.9 38.3 -48.45 37.6 -48.45 36.3 -48.45 35.15 -48 34.45
M -76.95 34.05
Q -76.8 34.2 -76.8 34.55
L -76.8 38.35
Q -76.8 38.85 -76.95 39.05 -77.1 39.2 -77.55 39.3
L -77.55 39.45 -74.8 39.45 -74.8 39.3
Q -75.2 39.2 -75.35 39.05 -75.5 38.85 -75.5 38.45
L -75.5 36.65 -74.6 36.65
Q -74.2 36.65 -74 36.85 -73.75 37 -73.7 37.4
L -73.55 37.4 -73.55 35.6 -73.7 35.6
Q -73.8 36 -74 36.15 -74.2 36.35 -74.6 36.35
L -75.5 36.35 -75.5 33.95 -74.5 33.95
Q -74.1 33.95 -73.85 34.1 -73.6 34.3 -73.45 34.7
L -73.3 34.7 -73.4 33.6 -77.55 33.6 -77.55 33.75
Q -77.1 33.9 -76.95 34.05
M -60.9 33.6
L -63.7 33.6 -63.7 33.75
Q -63.25 33.85 -63.1 34 -62.95 34.15 -62.95 34.55
L -62.95 38.55
Q -62.95 39.2 -63.7 39.3
L -63.7 39.45 -60.9 39.45 -60.9 39.3
Q -61.3 39.2 -61.5 39.05 -61.65 38.85 -61.65 38.45
L -61.65 36.65
Q -61.1 36.65 -60.9 36.75 -60.7 36.85 -60.55 37.1 -60.35 37.3 -60 38.05 -59.5 39.05 -59.15 39.45
L -57.45 39.45 -57.45 39.3
Q -57.8 39.25 -58 39 -58.25 38.8 -58.65 37.95 -59.15 37.1 -59.35 36.8 -59.6 36.55 -59.8 36.5
L -59.8 36.45
Q -59.25 36.3 -58.95 35.95 -58.65 35.55 -58.65 35.05 -58.65 34.35 -59.2 34 -59.8 33.6 -60.9 33.6
M -61.35 36.35
Q -61.5 36.35 -61.65 36.35
L -61.65 33.95 -61.25 33.95
Q -60.05 33.95 -60.05 35.1 -60.05 35.75 -60.35 36.05 -60.65 36.35 -61.35 36.35
M -68.55 33.45
Q -69.95 33.45 -70.85 34.3 -71.75 35.2 -71.75 36.55 -71.75 37.85 -70.85 38.75 -69.95 39.6 -68.55 39.6 -67.15 39.6 -66.25 38.75 -65.35 37.85 -65.35 36.55 -65.35 35.2 -66.25 34.3 -67.15 33.45 -68.55 33.45
M -67.2 34.5
Q -66.75 35.2 -66.75 36.55 -66.75 37.85 -67.25 38.55 -67.7 39.25 -68.55 39.25 -69.4 39.25 -69.9 38.55 -70.35 37.85 -70.35 36.6 -70.35 35.2 -69.9 34.5 -69.45 33.8 -68.55 33.8 -67.7 33.8 -67.2 34.5
M -50.35 2.8
L -50.35 2.2 -56.9 2.2 -56.9 2.8
Q -54.75 2.8 -54.75 4.65 -54.75 5.6 -55.25 7.05
L -59.65 19.05 -64.7 5.45
Q -65 4.65 -65 4.1 -65 2.8 -62.9 2.8
L -62.9 2.2 -70.75 2.2 -70.75 2.8
Q -69.5 2.8 -68.85 3.35 -68.2 3.9 -67.75 5.2
L -67.25 6.55 -71.85 19.05 -76.85 5.4
Q -77.15 4.7 -77.15 4.2 -77.15 3.05 -75.25 2.8
L -75.25 2.2 -83.2 2.2 -83.2 2.8
Q -81.95 2.8 -81.45 3.1 -80.95 3.35 -80.55 4.1 -80.1 4.8 -79.55 6.25
L -73 23.95 -72.4 23.95 -66.7 8.1 -60.85 23.95 -60.2 23.95 -54.15 7.15
Q -53.3 4.85 -52.5 3.9 -51.65 2.9 -50.35 2.8
M -16.7 33.6
L -18.5 33.6 -18.5 33.75
Q -18.3 33.8 -18.15 33.9 -18.05 34 -17.7 34.35
L -17.7 38.3
Q -17.7 38.8 -17.9 39 -18.05 39.2 -18.45 39.3
L -18.45 39.45 -16.45 39.45 -16.45 39.3
Q -16.95 39.2 -17.15 39 -17.3 38.8 -17.3 38.35
L -17.3 34.8 -13.1 39.5 -12.9 39.5 -12.9 34.75
Q -12.9 33.8 -12.05 33.75
L -12.05 33.6 -14.05 33.6 -14.05 33.75
Q -13.6 33.85 -13.45 34.1 -13.3 34.3 -13.3 34.9
L -13.3 37.5 -16.7 33.6
M -5.1 33.6
L -5.25 33.6
Q -5.45 33.8 -5.7 33.8 -5.85 33.8 -6.15 33.7 -6.8 33.45 -7.35 33.45 -8.7 33.45 -9.65 34.35 -10.55 35.25 -10.55 36.55 -10.55 37.4 -10.1 38.1 -9.7 38.85 -9 39.2 -8.3 39.6 -7.35 39.6 -5.95 39.6 -5.1 39.2
L -5.1 37.95
Q -5.1 37.55 -4.95 37.35 -4.85 37.15 -4.5 37.05
L -4.5 36.9 -6.95 36.9 -6.95 37.05
Q -6.35 37.2 -6.35 37.8
L -6.35 38.65
Q -6.35 39.25 -7.25 39.25 -8.15 39.25 -8.65 38.6 -9.15 37.95 -9.15 36.65 -9.15 35.3 -8.65 34.55 -8.15 33.8 -7.25 33.8 -6.6 33.8 -6.05 34.2 -5.5 34.55 -5.25 35.25
L -5.1 35.25 -5.1 33.6
M -31.7 33.45
L -31.85 33.45
Q -32 33.6 -32.15 33.6 -32.3 33.6 -32.65 33.55 -33 33.45 -33.25 33.45 -34.05 33.45 -34.6 33.95 -35.1 34.4 -35.1 35.15 -35.1 35.5 -34.95 35.85 -34.85 36.15 -34.6 36.4 -34.3 36.65 -33.55 37.1 -32.7 37.6 -32.5 37.9 -32.3 38.15 -32.3 38.45 -32.3 38.8 -32.6 39.05 -32.9 39.25 -33.4 39.25 -34 39.25 -34.4 38.9 -34.8 38.5 -34.95 37.8
L -35.1 37.8 -35.1 39.55 -34.95 39.55
Q -34.85 39.35 -34.65 39.35 -34.55 39.35 -34.2 39.45 -33.65 39.6 -33.2 39.6 -32.45 39.6 -31.9 39.15 -31.35 38.7 -31.35 37.9 -31.35 37.35 -31.65 36.95 -31.85 36.65 -32.1 36.45 -32.3 36.25 -33.1 35.8 -33.85 35.3 -33.95 35.2 -34.1 35.05 -34.2 34.9 -34.25 34.75 -34.25 34.55 -34.25 34.25 -34 34 -33.7 33.8 -33.3 33.8 -32.85 33.8 -32.45 34.15 -32 34.5 -31.85 35
L -31.7 35 -31.7 33.45
M -39.45 33.45
L -40.25 33.45 -41.95 37.95
Q -42.2 38.6 -42.45 38.9 -42.7 39.2 -43.05 39.3
L -43.05 39.45 -41.15 39.45 -41.15 39.3
Q -41.75 39.1 -41.75 38.75 -41.75 38.55 -41.65 38.25
L -41.35 37.5 -39.25 37.5 -38.9 38.4
Q -38.8 38.7 -38.8 38.85 -38.8 39 -38.95 39.1 -39.1 39.2 -39.45 39.3
L -39.45 39.45 -36.6 39.45 -36.6 39.3
Q -36.95 39.25 -37.2 39 -37.45 38.75 -37.7 38.15
L -39.45 33.45
M -40.3 34.7
L -39.4 37.05 -41.15 37.05 -40.3 34.7
M -22.8 33.6
L -22.8 33.75
Q -22.35 33.9 -22.2 34.05 -22.05 34.2 -22.05 34.6
L -22.05 38.35
Q -22.05 38.75 -22.15 38.85 -22.2 39 -22.35 39.1 -22.5 39.2 -22.8 39.3
L -22.8 39.45 -20.05 39.45 -20.05 39.3
Q -20.5 39.15 -20.65 39 -20.8 38.85 -20.8 38.45
L -20.8 34.7
Q -20.8 34.2 -20.65 34.05 -20.5 33.85 -20.05 33.75
L -20.05 33.6 -22.8 33.6
M -26.45 33.95
L -25.85 33.95
Q -25.3 33.95 -25 34.15 -24.7 34.4 -24.55 34.9
L -24.4 34.9 -24.45 33.5 -24.6 33.5
Q -24.8 33.6 -25.2 33.6
L -28.95 33.6
Q -29.35 33.6 -29.55 33.5
L -29.75 33.5 -29.8 34.9 -29.6 34.9
Q -29.45 34.4 -29.15 34.15 -28.85 33.95 -28.3 33.95
L -27.75 33.95 -27.75 38.4
Q -27.75 38.85 -27.9 39.05 -28.05 39.2 -28.45 39.3
L -28.45 39.45 -25.7 39.45 -25.7 39.3
Q -26.15 39.2 -26.3 39.05 -26.45 38.85 -26.45 38.4
L -26.45 33.95
M -32 5.8
L -31.6 5.8 -31.6 2.2 -47.05 2.2 -47.05 2.8
Q -45.65 2.8 -45.15 3.55 -44.65 4.3 -44.65 6.25
L -44.65 19.65
Q -44.65 21.55 -45.15 22.3 -45.65 23.05 -47.05 23.05
L -47.05 23.65 -31.6 23.65 -30.65 19.65 -31.25 19.65
Q -31.85 21 -32.4 21.6 -32.95 22.15 -33.7 22.4 -34.45 22.6 -36.5 22.6
L -40.25 22.6
Q -41.1 22.6 -41.45 22.3 -41.8 21.95 -41.8 21.15
L -41.8 13.45 -36.5 13.45
Q -34.8 13.45 -34.3 13.8 -33.85 14.15 -33.5 15.55
L -32.85 15.55 -32.85 10.3 -33.5 10.3
Q -33.7 11.55 -34.1 12 -34.6 12.4 -35.8 12.4
L -41.8 12.4 -41.8 3.25 -35.6 3.25
Q -33.55 3.25 -32.95 3.75 -32.35 4.25 -32 5.8
M -15.85 1.95
L -18.05 1.95 -24 19.65
Q -24.65 21.6 -25.35 22.25 -26 22.85 -27.2 23.05
L -27.2 23.65 -21.65 23.65 -21.65 23.05
Q -23.35 23 -23.35 21.65 -23.35 20.9 -22.8 19.3
L -21.35 14.95 -14.45 14.95 -12.45 20.95
Q -12.25 21.4 -12.25 21.75 -12.25 23.05 -14.1 23.05
L -14.1 23.65 -6.55 23.65 -6.55 23.05
Q -7.9 23.05 -8.5 22.55 -9.05 22.1 -9.6 20.45
L -15.85 1.95
M -17.9 4.55
L -14.85 13.65 -20.9 13.65 -17.9 4.55
M 23.8 33.6
L 23.8 33.75
Q 24.2 33.85 24.35 34 24.5 34.15 24.5 34.6
L 24.5 38.35
Q 24.5 38.85 24.35 39 24.2 39.2 23.8 39.3
L 23.8 39.45 28.25 39.45 28.35 38.05 28.15 38.05
Q 27.8 39.1 26.95 39.1
L 26.6 39.1
Q 26.15 39.1 26 38.95 25.8 38.8 25.8 38.4
L 25.8 36.7 26.85 36.7
Q 27.55 36.7 27.65 37.45
L 27.85 37.45 27.85 35.6 27.65 35.6
Q 27.55 36 27.35 36.2 27.2 36.35 26.85 36.35
L 25.8 36.35 25.8 33.95 26.95 33.95
Q 27.4 33.95 27.65 34.15 27.85 34.35 28 34.9
L 28.15 34.9 28.15 33.6 23.8 33.6
M 38 33.95
L 39.15 33.95
Q 39.6 33.95 39.85 34.15 40.05 34.35 40.2 34.9
L 40.35 34.9 40.35 33.6 36 33.6 36 33.75
Q 36.4 33.85 36.55 34 36.7 34.15 36.7 34.6
L 36.7 38.35
Q 36.7 38.85 36.55 39 36.4 39.2 36 39.3
L 36 39.45 40.45 39.45 40.55 38.05 40.35 38.05
Q 40 39.1 39.15 39.1
L 38.8 39.1
Q 38.35 39.1 38.2 38.95 38 38.8 38 38.4
L 38 36.7 39.05 36.7
Q 39.75 36.7 39.85 37.45
L 40.05 37.45 40.05 35.6 39.85 35.6
Q 39.75 36 39.55 36.2 39.4 36.35 39.05 36.35
L 38 36.35 38 33.95
M 32.65 33.75
L 32.65 33.6 29.9 33.6 29.9 33.75
Q 30.35 33.9 30.5 34.05 30.65 34.2 30.65 34.6
L 30.65 38.35
Q 30.65 38.85 30.5 39 30.35 39.15 29.9 39.3
L 29.9 39.45 34.35 39.45 34.55 37.95 34.35 37.95
Q 34 38.6 33.7 38.85 33.4 39.1 32.85 39.1 32.3 39.1 32.1 39 31.9 38.85 31.9 38.5
L 31.9 34.55
Q 31.9 34.2 32.05 34.05 32.2 33.9 32.65 33.75
M 2.2 33.95
L 2.8 33.95
Q 3.35 33.95 3.65 34.15 3.95 34.4 4.1 34.9
L 4.25 34.9 4.2 33.5 4.05 33.5
Q 3.85 33.6 3.45 33.6
L -0.3 33.6
Q -0.7 33.6 -0.9 33.5
L -1.1 33.5 -1.15 34.9 -0.95 34.9
Q -0.8 34.4 -0.5 34.15 -0.2 33.95 0.35 33.95
L 0.9 33.95 0.9 38.4
Q 0.9 38.85 0.75 39.05 0.6 39.2 0.2 39.3
L 0.2 39.45 2.95 39.45 2.95 39.3
Q 2.5 39.2 2.35 39.05 2.2 38.85 2.2 38.4
L 2.2 33.95
M 15 34
Q 15.15 34.15 15.15 34.6
L 15.15 38.35
Q 15.15 38.85 15 39 14.85 39.2 14.45 39.3
L 14.45 39.45 18.9 39.45 19 38.05 18.8 38.05
Q 18.45 39.1 17.6 39.1
L 17.25 39.1
Q 16.8 39.1 16.65 38.95 16.45 38.8 16.45 38.4
L 16.45 36.7 17.5 36.7
Q 18.2 36.7 18.3 37.45
L 18.5 37.45 18.5 35.6 18.3 35.6
Q 18.2 36 18 36.2 17.85 36.35 17.5 36.35
L 16.45 36.35 16.45 33.95 17.6 33.95
Q 18.05 33.95 18.3 34.15 18.5 34.35 18.65 34.9
L 18.8 34.9 18.8 33.6 14.45 33.6 14.45 33.75
Q 14.85 33.85 15 34
M 10.65 34.6
L 10.65 36.2 7.85 36.2 7.85 34.55
Q 7.85 34.2 8 34.05 8.15 33.85 8.55 33.75
L 8.55 33.6 5.8 33.6 5.8 33.75
Q 6.25 33.9 6.4 34.05 6.55 34.2 6.55 34.6
L 6.55 38.35
Q 6.55 38.75 6.5 38.85 6.45 39 6.3 39.1 6.15 39.2 5.8 39.3
L 5.8 39.45 8.55 39.45 8.55 39.3
Q 8.1 39.15 8 39 7.85 38.85 7.85 38.45
L 7.85 36.6 10.65 36.6 10.65 38.35
Q 10.65 38.85 10.5 39 10.35 39.2 9.95 39.3
L 9.95 39.45 12.7 39.45 12.7 39.3
Q 12.25 39.15 12.1 39 11.95 38.85 11.95 38.45
L 11.95 34.7
Q 11.95 34.2 12.1 34.05 12.2 33.9 12.7 33.75
L 12.7 33.6 9.95 33.6 9.95 33.75
Q 10.4 33.9 10.5 34.05 10.65 34.2 10.65 34.6
M 12.6 1.4
L 11.95 1.4
Q 10.95 2.2 8.55 2.2
L -2.7 2.2
Q -5.05 2.2 -5.95 1.4
L -6.55 1.4 -6.55 6.3 -5.95 6.3
Q -5.8 4.65 -4.8 3.95 -3.75 3.25 -1.55 3.25
L 1.55 3.25 1.55 19.65
Q 1.55 21.45 1.05 22.25 0.55 23.05 -0.85 23.05
L -0.85 23.65 6.75 23.65 6.75 23.05
Q 5.35 23.05 4.9 22.35 4.4 21.65 4.4 19.75
L 4.4 3.25 7.65 3.25
Q 9.75 3.25 10.75 3.9 11.8 4.55 12.2 6.3
L 12.6 6.3 12.6 1.4
M 38.45 2.2
L 30.75 2.2 30.75 2.8
Q 32.15 2.8 32.65 3.55 33.15 4.25 33.15 6.25
L 33.15 12.35 21.45 12.35 21.45 6.25
Q 21.45 4.35 22 3.6 22.55 2.8 23.95 2.8
L 23.95 2.2 16.2 2.2 16.2 2.8
Q 17.6 2.8 18.1 3.55 18.65 4.25 18.65 6.25
L 18.65 19.65
Q 18.65 21.5 18.1 22.25 17.6 23.05 16.2 23.05
L 16.2 23.65 23.95 23.65 23.95 23.05
Q 22.55 23.05 22 22.3 21.45 21.55 21.45 19.65
L 21.45 13.4 33.15 13.4 33.15 19.65
Q 33.15 21.55 32.7 22.3 32.2 23.05 30.75 23.05
L 30.75 23.65 38.45 23.65 38.45 23.05
Q 37.05 23.05 36.55 22.3 36 21.55 36 19.65
L 36 6.25
Q 36 4.3 36.55 3.55 37.05 2.8 38.45 2.8
L 38.45 2.2
M 70.9 34.9
L 71.05 34.9 71 33.5 70.85 33.5
Q 70.65 33.6 70.25 33.6
L 66.5 33.6
Q 66.1 33.6 65.9 33.5
L 65.7 33.5 65.65 34.9 65.85 34.9
Q 66 34.4 66.3 34.15 66.6 33.95 67.15 33.95
L 67.7 33.95 67.7 38.4
Q 67.7 38.85 67.55 39.05 67.4 39.2 67 39.3
L 67 39.45 69.75 39.45 69.75 39.3
Q 69.3 39.2 69.15 39.05 69 38.85 69 38.4
L 69 33.95 69.6 33.95
Q 70.15 33.95 70.45 34.15 70.75 34.4 70.9 34.9
M 75.85 33.45
Q 75.7 33.6 75.55 33.6 75.4 33.6 75.05 33.55 74.7 33.45 74.45 33.45 73.65 33.45 73.1 33.95 72.6 34.4 72.6 35.15 72.6 35.5 72.75 35.85 72.85 36.15 73.1 36.4 73.4 36.65 74.15 37.1 75 37.6 75.2 37.9 75.4 38.15 75.4 38.45 75.4 38.8 75.1 39.05 74.8 39.25 74.3 39.25 73.7 39.25 73.3 38.9 72.9 38.5 72.75 37.8
L 72.6 37.8 72.6 39.55 72.75 39.55
Q 72.85 39.35 73.05 39.35 73.15 39.35 73.5 39.45 74.05 39.6 74.5 39.6 75.25 39.6 75.8 39.15 76.35 38.7 76.35 37.9 76.35 37.35 76.05 36.95 75.85 36.65 75.6 36.45 75.4 36.25 74.6 35.8 73.85 35.3 73.75 35.2 73.6 35.05 73.5 34.9 73.45 34.75 73.45 34.55 73.45 34.25 73.7 34 74 33.8 74.4 33.8 74.85 33.8 75.25 34.15 75.7 34.5 75.85 35
L 76 35 76 33.45 75.85 33.45
M 49.85 33.75
L 49.85 33.6 47.9 33.6 46.35 37.45 44.8 33.6 42.7 33.6 42.7 33.75
Q 43.2 33.8 43.55 34.15
L 42.95 38
Q 42.85 38.7 42.65 38.95 42.4 39.25 41.95 39.3
L 41.95 39.45 44.05 39.45 44.05 39.3
Q 43.35 39.25 43.35 38.45 43.35 38.3 43.35 38.1
L 43.85 34.65 45.75 39.45 46 39.45 47.9 34.65 48.4 38
Q 48.4 38.25 48.4 38.45 48.4 38.8 48.25 39 48.1 39.2 47.75 39.3
L 47.75 39.45 50.65 39.45 50.65 39.3
Q 50.2 39.2 50 39 49.8 38.75 49.75 38.35
L 49.2 34.7
Q 49.2 34.6 49.2 34.45 49.2 34.15 49.35 34 49.5 33.85 49.85 33.75
M 58 33.6
L 58 33.75
Q 58.2 33.8 58.35 33.9 58.45 34 58.8 34.35
L 58.8 38.3
Q 58.8 38.8 58.6 39 58.45 39.2 58.05 39.3
L 58.05 39.45 60.05 39.45 60.05 39.3
Q 59.55 39.2 59.35 39 59.2 38.8 59.2 38.35
L 59.2 34.8 63.4 39.5 63.6 39.5 63.6 34.75
Q 63.6 33.8 64.45 33.75
L 64.45 33.6 62.45 33.6 62.45 33.75
Q 62.9 33.85 63.05 34.1 63.2 34.3 63.2 34.9
L 63.2 37.5 59.8 33.6 58 33.6
M 55.2 36.35
L 54.15 36.35 54.15 33.95 55.3 33.95
Q 55.75 33.95 56 34.15 56.2 34.35 56.35 34.9
L 56.5 34.9 56.5 33.6 52.15 33.6 52.15 33.75
Q 52.55 33.85 52.7 34 52.85 34.15 52.85 34.6
L 52.85 38.35
Q 52.85 38.85 52.7 39 52.55 39.2 52.15 39.3
L 52.15 39.45 56.6 39.45 56.7 38.05 56.5 38.05
Q 56.15 39.1 55.3 39.1
L 54.95 39.1
Q 54.5 39.1 54.35 38.95 54.15 38.8 54.15 38.4
L 54.15 36.7 55.2 36.7
Q 55.9 36.7 56 37.45
L 56.2 37.45 56.2 35.6 56 35.6
Q 55.9 36 55.7 36.2 55.55 36.35 55.2 36.35
M 57.85 5.8
L 57.85 2.2 42.4 2.2 42.4 2.8
Q 43.8 2.8 44.3 3.55 44.8 4.3 44.8 6.25
L 44.8 19.65
Q 44.8 21.55 44.3 22.3 43.8 23.05 42.4 23.05
L 42.4 23.65 57.85 23.65 58.8 19.65 58.2 19.65
Q 57.6 21 57.05 21.6 56.5 22.15 55.75 22.4 55 22.6 52.95 22.6
L 49.2 22.6
Q 48.35 22.6 48 22.3 47.65 21.95 47.65 21.15
L 47.65 13.45 52.95 13.45
Q 54.65 13.45 55.15 13.8 55.6 14.15 55.95 15.55
L 56.6 15.55 56.6 10.3 55.95 10.3
Q 55.75 11.55 55.35 12 54.85 12.4 53.65 12.4
L 47.65 12.4 47.65 3.25 53.85 3.25
Q 55.9 3.25 56.5 3.75 57.1 4.25 57.45 5.8
L 57.85 5.8
M 83.2 23.05
Q 82.15 22.95 81.2 22.1 80.25 21.2 78.6 18.4 77.05 15.9 76.15 14.8 75.2 13.7 74.25 13.1 78.7 11.75 78.7 7.8 78.7 5.35 76.75 3.8 74.8 2.2 71.55 2.2
L 62.75 2.2 62.75 2.8
Q 64.15 2.8 64.65 3.55 65.15 4.25 65.15 6.15
L 65.15 19.65
Q 65.15 21.55 64.65 22.3 64.15 23.05 62.75 23.05
L 62.75 23.65 70.45 23.65 70.45 23.05
Q 69.1 23.05 68.55 22.3 68 21.55 68 19.65
L 68 13.7 69.75 13.7
Q 71.15 13.7 72.3 14.65 73.45 15.55 75.5 18.9 77.45 22 78.8 23.65
L 83.2 23.65 83.2 23.05
M 74.2 4.35
Q 75.7 5.7 75.7 7.9 75.7 10.1 74.35 11.45 73 12.8 70.65 12.8
L 68 12.8 68 3 70.25 3
Q 72.7 3 74.2 4.35 Z"/>
</g>

<path id="Layer0_0_MEMBER_0_1_STROKES" stroke="#8CABCA" stroke-width="1" stroke-linejoin="round" stroke-linecap="round" fill="none" d="
M -51.63661193847656 -7.2814453125
L 51.63661193847656 -7.2814453125"/>
</defs>

<g transform="matrix( 1.0814971923828125, 0, 0, 1, 96.5,51.05) ">
<g transform="matrix( 0.64910888671875, 0, 0, 0.64910888671875, 0,-1.05) ">
<use xlink:href="#Layer0_0_MEMBER_0_1_STROKES" transform="matrix( 1.5405731201171875, 0, 0, 1.5405731201171875, 0,1.6) "/>
</g>

<g transform="matrix( 0.64910888671875, 0, 0, 0.64910888671875, -434.9,-179.3) ">
<use xlink:href="#Layer0_0_MEMBER_1_FILL"/>
</g>

<g transform="matrix( 0.6241302490234375, 0, 0, 0.6241302490234375, 0,-0.5) ">
<use xlink:href="#Layer0_0_MEMBER_2_FILL"/>
</g>
</g>
</svg>
