
<svg xmlns="http://www.w3.org/2000/svg" version="1.1" xmlns:xlink="http://www.w3.org/1999/xlink" preserveAspectRatio="none" x="0px" y="0px" width="192px" height="192px" viewBox="0 0 192 192">
<defs>
<g id="logo_0_Layer0_0_FILL">
<path fill="#27528D" stroke="none" d="
M 64.8 24.4
Q 58.45 31.4 49.9 36.85 41.4 42.3 36.95 58.85 32.5 75.35 21.95 75.4 11.45 75.45 9.05 79.35 8.680078125 79.9638671875 8.2 80.4 68.879296875 84.215625 70 40 60.05 61.9 50.15 61.25 46.85 53.7 54.65 44.35 62.5 34.95 69.35 24.55 76.25 14.1 74.8 -3.4 71.2 17.4 64.8 24.4
M -69.4 24.5
Q -62.5056640625 34.963671875 -54.7 44.3 -46.840234375 53.688671875 -50.15 61.25 -60.075 61.8896484375 -70 40 -69.780859375 86.555859375 -8.2 80.4 -8.680859375 79.9626953125 -9.05 79.35 -11.4458984375 75.4501953125 -22 75.4 -32.513671875 75.348046875 -36.95 58.8 -41.3841796875 42.305859375 -49.95 36.85 -58.459375 31.3888671875 -64.85 24.4 -71.2001953125 17.419140625 -74.8 -3.4 -76.249609375 14.0822265625 -69.4 24.5
M -24.6 63
Q -17.2 58.95 -11.15 63.7 -5.1 68.4 0 67.85 5.1 68.4 11.15 63.7 17.2 58.95 24.6 63 24.3 38.35 0 37.1 -24.3 38.35 -24.6 63
M 16.9 -20.45
Q 5.8 -12.05 0 -1.95 -5.8 -12.05 -16.9 -20.45 -28 -28.9 -34.15 -32.7 -40.3 -36.45 -62 -57 -45.1 -35.35 -35.9 -29.95 -26.7 -24.55 -13.75 -12.5 -0.85 -0.45 0 24.45 0.85 -0.45 13.75 -12.5 26.7 -24.55 35.9 -29.95 45.1 -35.35 62 -57 40.3 -36.45 34.15 -32.7 28 -28.9 16.9 -20.45
M 3.05 -36.3
Q 1.55 -36.5 0 -36.5 -1.55 -36.5 -3.05 -36.3 -11.15 -35.2 -18.85 -27.65 -6.4 -19.15 0 -10.75 6.4 -19.15 18.85 -27.65 11.15 -35.2 3.05 -36.3
M 4.45 -31
Q 4.4583984375 -30.77578125 4.3 -30.65
L 0.65 -26.45 4.3 -22.25
Q 4.4578125 -22.0740234375 4.45 -21.9 4.442578125 -21.681640625 4.3 -21.55 4.1525390625 -21.405859375 3.95 -21.4
L -4 -21.4
Q -4.20234375 -21.40546875 -4.35 -21.55 -4.4931640625 -21.6826171875 -4.5 -21.9 -4.5080078125 -22.0734375 -4.4 -22.25
L -0.65 -26.45 -4.4 -30.65
Q -4.5083984375 -30.77578125 -4.5 -31 -4.4939453125 -31.1673828125 -4.35 -31.3 -4.2021484375 -31.4451171875 -4 -31.45
L 3.95 -31.45
Q 4.1521484375 -31.4451171875 4.3 -31.3 4.4439453125 -31.1673828125 4.45 -31
M 2.85 -22.4
L 0 -25.7 -2.9 -22.4 2.85 -22.4
M 0 -27.2
L 2.85 -30.45 -2.9 -30.45 0 -27.2
M 0.2 -74.35
Q 0.1 -74.35 0 -74.35 -0.1 -74.35 -0.2 -74.35
L -4.85 -39.6
Q -4.35 -39.75 -3.8 -39.8 -1.9 -40 0 -40 1.9 -40 3.8 -39.8 4.35 -39.75 4.85 -39.6
L 0.2 -74.35
M 64.6 -33.15
Q 47.25 34.75 11.5 33 49.8 48.5 64.6 -33.15
M 25 16.1
Q 27.3 17.8 30.6 16.65 33.9 15.55 36.45 12.25 38.95 8.85 39.1 5.35 39.3 1.85 37 0.1 34.85 -1.55 31.45 -0.4 28.15 0.75 25.7 4.05 23.15 7.4 22.9 10.9 22.8 14.45 25 16.1
M 64.6 -51.1
Q 53.75 -30.95 36.8 -21.7 19.85 -12.45 11 1.9 2.15 16.2 8.25 33 6.25 18.55 15.7 5.3 25.2 -7.95 41.7 -19.35 58.25 -30.75 64.6 -51.1
M 18.4 -34.5
Q 21.75 -32.5 25.05 -29.7
L 43.35 -66.25 18.4 -34.5
M 7.55 -39.1
Q 11.75 -38.1 16 -35.8
L 23.3 -72.1 7.55 -39.1
M -11.5 33
Q -47.25 34.75 -64.6 -33.15 -49.8 48.5 -11.5 33
M -39.1 5.35
Q -38.95 8.85 -36.45 12.25 -33.9 15.55 -30.6 16.65 -27.3 17.8 -25 16.1 -22.8 14.45 -22.9 10.9 -23.15 7.4 -25.7 4.05 -28.15 0.75 -31.45 -0.4 -34.85 -1.55 -37 0.1 -39.3 1.85 -39.1 5.35
M -64.6 -51.1
Q -58.25 -30.75 -41.7 -19.35 -25.2 -7.95 -15.7 5.3 -6.25 18.55 -8.25 33 -2.15 16.2 -11 1.9 -19.85 -12.45 -36.8 -21.7 -53.75 -30.95 -64.6 -51.1
M -16 -35.8
Q -11.75 -38.1 -7.55 -39.1
L -23.3 -72.1 -16 -35.8
M -25.05 -29.7
Q -21.75 -32.5 -18.4 -34.5
L -43.35 -66.25 -25.05 -29.7 Z"/>
</g>

<path id="logo_0_Layer0_0_MEMBER_0_1_STROKES" stroke="#8CABCA" stroke-width="1" stroke-linejoin="round" stroke-linecap="round" fill="none" d="
M -23.096691131591797 18.577377319335938
Q -26.088737487792965 20.83405838012695 -30.427268218994136 19.36791458129883 -34.81531524658204 17.894833374023435 -38.136468505859376 13.491444396972657 -41.41504287719727 9.144509124755857 -41.61857833862304 4.471073913574219 -41.82905120849609 -0.15284500122070277 -38.88652114868164 -2.416463470458984 -36.007382202148435 -4.5879867553710945 -31.569818878173827 -3.107968139648438 -27.245162963867184 -1.5427917480468754 -23.9665885925293 2.804143524169922 -20.64543533325195 7.2075325012207045 -20.37850875854492 11.788872528076173 -20.217552185058594 16.405854034423825 -23.096691131591797 18.577377319335938 Z"/>
</defs>

<g transform="matrix( 1.0814971923828125, 0, 0, 1, 96,92.6) ">
<g transform="matrix( 1, 0, 0, 1, 0,0) ">
<use xlink:href="#logo_0_Layer0_0_FILL"/>
</g>

<g transform="matrix( 0.990325927734375, 0.1387481689453125, -0.1387481689453125, 0.990325927734375, 2.5,5.25) ">
<use xlink:href="#logo_0_Layer0_0_MEMBER_0_1_STROKES" transform="matrix( 0.990325927734375, -0.1387481689453125, 0.1387481689453125, 0.990325927734375, -3.2,-4.85) "/>
</g>
</g>
</svg>
