<svg xmlns="http://www.w3.org/2000/svg" xmlns:xlink="http://www.w3.org/1999/xlink" viewBox="0 0 379 379"><defs><symbol id="Nuevo_símbolo_5" data-name="Nuevo símbolo 5" viewBox="0 0 379 379"><rect x="0.5" y="0.5" width="378" height="378" style="fill:#92ceff;stroke:#589ff4;stroke-miterlimit:10;opacity:0"/><path d="M133.39,149.9V130.09h-9.9V149.9h-9.9V100.39h-9.9V169.7H74V328.11H143.3V149.9ZM93.79,288.51h-9.9v-19.8h9.9Zm0-29.7h-9.9V239h9.9Zm0-29.71h-9.9V209.3h9.9Zm0-29.7h-9.9V179.6h9.9Zm19.8,59.41h-9.9V239h9.9Zm0-59.41h-9.9V179.6h9.9Zm19.8,89.11h-9.9v-19.8h9.9Zm-1.61,39.6H114.29v-19.8h17.49Zm1.61-99h-9.9V209.3h9.9Z" style="fill:#92ceff;stroke:#589ff4;stroke-miterlimit:10"/><path d="M204.9,90.49V70.69H185.1V50.89h-9.9v39.6H155.4V328.11H195v-19.8h19.8v19.8h9.9V90.49ZM175.2,268.71h-9.9v-19.8h9.9Zm0-59.41h-9.9V189.5h9.9Zm0-29.7h-9.9V159.8h9.9Zm0-29.7h-9.9V130.09h9.9Zm0-29.71h-9.9v-19.8h9.9ZM195,298.41h-9.9v-19.8H195Zm0-59.4h-9.9V219.2H195Zm0-59.41h-9.9V159.8H195Zm19.8,118.81h-9.9v-19.8h9.9Zm0-29.7h-9.9v-19.8h9.9Zm0-29.7h-9.9V219.2h9.9Zm0-29.71h-9.9V189.5h9.9Zm0-89.11h-9.9v-19.8h9.9Z" style="fill:none;stroke:#589ff4;stroke-miterlimit:10"/><path d="M204.9,90.49V70.69H185.1V50.89h-9.9v39.6H155.4V328.11H195v-19.8h19.8v19.8h9.9V90.49ZM175.2,268.71h-9.9v-19.8h9.9Zm0-59.41h-9.9V189.5h9.9Zm0-29.7h-9.9V159.8h9.9Zm0-29.7h-9.9V130.09h9.9Zm0-29.71h-9.9v-19.8h9.9ZM195,298.41h-9.9v-19.8H195Zm0-59.4h-9.9V219.2H195Zm0-59.41h-9.9V159.8H195Zm19.8,118.81h-9.9v-19.8h9.9Zm0-29.7h-9.9v-19.8h9.9Zm0-29.7h-9.9V219.2h9.9Zm0-29.71h-9.9V189.5h9.9Zm0-89.11h-9.9v-19.8h9.9Z" style="fill:#92ceff;fill-rule:evenodd"/><path d="M235.7,130.09v198H305v-198Zm20.36,89.66h-9.9V200h9.9Zm0-59.4h-9.9V140.54h9.9Zm19.8,89.11H266V229.65h9.9Zm0-29.71H266V200h9.9Zm0-29.7H266v-19.8h9.9Zm19.8,59.41h-9.9V229.65h9.9Zm0-59.41h-9.9v-19.8h9.9Zm0-29.7h-9.9V140.54h9.9Zm-39.6,117.71h-9.9v-19.8h9.9Zm39.6,29.7h-9.9V288h9.9Zm0-29.7h-9.9v-19.8h9.9Z" style="fill:#92ceff;stroke:#589ff4;stroke-miterlimit:10"/></symbol></defs><title>search-city</title><g id="Capa_2" data-name="Capa 2"><g id="Capa_1-2" data-name="Capa 1"><use id="Nuevo_símbolo_5-3" data-name="Nuevo símbolo 5" width="379" height="379" xlink:href="#Nuevo_símbolo_5"/></g></g></svg>