<svg xmlns="http://www.w3.org/2000/svg" xmlns:xlink="http://www.w3.org/1999/xlink" viewBox="0 0 379 391.71"><defs><symbol id="Nuevo_símbolo_4" data-name="Nuevo símbolo 4" viewBox="0 0 379 391.71"><rect x="0.5" y="0.5" width="378" height="378" style="fill:#92ceff;stroke:#589ff4;stroke-miterlimit:10;opacity:0"/><path d="M267.76,136.41c-3-7.16-16.63-40-52.17-52.17a82.66,82.66,0,0,0-52.16,0c-35.56,12.12-49.22,45-52.17,52.17-13.88,33.45-4.32,64.37,0,78.25C118.27,237.3,179.6,319,189.51,319s71.24-81.7,78.25-104.34C272.05,200.78,281.62,169.86,267.76,136.41Zm-78.25,63.76a37.68,37.68,0,1,1,37.68-37.67A37.67,37.67,0,0,1,189.51,200.17Z" style="fill:#27528d;stroke:#589ff4;stroke-miterlimit:10"/><text transform="translate(77.74 378.96)" style="font-size:51px;font-family:MyriadPro-Regular, Myriad Pro"><tspan style="letter-spacing:-0.0389859068627451em">L</tspan><tspan x="22.08" y="0">O</tspan><tspan x="57.22" y="0" style="letter-spacing:0.004001991421568627em">C</tspan><tspan x="87" y="0" style="letter-spacing:-0.0769952512254902em">A</tspan><tspan x="114.29" y="0">TION</tspan></text></symbol></defs><title>search-location</title><g id="Capa_2" data-name="Capa 2"><g id="Capa_1-2" data-name="Capa 1"><use id="Nuevo_símbolo_4-3" data-name="Nuevo símbolo 4" width="379" height="391.71" xlink:href="#Nuevo_símbolo_4"/></g></g></svg>