<svg xmlns="http://www.w3.org/2000/svg" xmlns:xlink="http://www.w3.org/1999/xlink" viewBox="0 0 379 379"><defs><symbol id="Nuevo_símbolo_4" data-name="Nuevo símbolo 4" viewBox="0 0 379 379"><rect x="0.5" y="0.5" width="378" height="378" style="fill:#92ceff;stroke:#589ff4;stroke-miterlimit:10;opacity:0"/><path d="M267.76,136.41c-3-7.16-16.63-40-52.17-52.17a82.66,82.66,0,0,0-52.16,0c-35.56,12.12-49.22,45-52.17,52.17-13.88,33.45-4.32,64.37,0,78.25C118.27,237.3,179.6,319,189.51,319s71.24-81.7,78.25-104.34C272.05,200.78,281.62,169.86,267.76,136.41Zm-78.25,63.76a37.68,37.68,0,1,1,37.68-37.67A37.67,37.67,0,0,1,189.51,200.17Z" style="fill:#92ceff;stroke:#589ff4;stroke-miterlimit:10"/></symbol></defs><title>search-location</title><g id="Capa_2" data-name="Capa 2"><g id="Capa_1-2" data-name="Capa 1"><use id="Nuevo_símbolo_4-3" data-name="Nuevo símbolo 4" width="379" height="379" xlink:href="#Nuevo_símbolo_4"/></g></g></svg>