<svg xmlns="http://www.w3.org/2000/svg" xmlns:xlink="http://www.w3.org/1999/xlink" viewBox="0 0 311.81 261.96"><defs><symbol id="Nuevo_símbolo_3" data-name="Nuevo símbolo 3" viewBox="0 0 311.81 261.96"><path d="M51,234.44,15.11,261.39C6.85,257.57,2.05,251.06.54,242L36.4,215.06Z" style="fill:#27528d;stroke:#589ff4;stroke-miterlimit:10"/><path d="M291.47,40A98.91,98.91,0,0,0,126,147.47l-89.7,67.39.15.2,5.34-4L56.3,230.43l-5.33,4,.14.19,89.46-67.22A98.91,98.91,0,0,0,291.47,40ZM143.21,151.39A86.54,86.54,0,1,1,264.38,168.6,86.54,86.54,0,0,1,143.21,151.39Z" style="fill:#27528d;stroke:#589ff4;stroke-miterlimit:10"/><polygon points="56.3 230.43 50.97 234.44 36.4 215.06 41.74 211.05 56.3 230.43" style="fill:#27528d;stroke:#589ff4;stroke-miterlimit:10"/></symbol></defs><title>search</title><g id="Capa_2" data-name="Capa 2"><g id="Capa_1-2" data-name="Capa 1"><use id="Nuevo_símbolo_3-3" data-name="Nuevo símbolo 3" width="311.81" height="261.96" xlink:href="#Nuevo_símbolo_3"/></g></g></svg>