
<svg xmlns="http://www.w3.org/2000/svg" version="1.1" xmlns:xlink="http://www.w3.org/1999/xlink" preserveAspectRatio="none" x="0px" y="0px" width="368px" height="155px" viewBox="0 0 368 155">
<defs>
<g id="copia_logoiso_horizontal_0_Layer0_0_FILL">
<path fill="#ADC5E6" stroke="none" d="
M 143.6 -32.5
Q 144.15 -31.7 144.15 -29.6
L 144.15 -15.2
Q 144.15 -13.1 143.55 -12.35 143.05 -11.55 141.55 -11.55
L 141.55 -10.9 149.85 -10.9 149.85 -11.55
Q 148.35 -11.55 147.8 -12.35 147.2 -13.15 147.2 -15.2
L 147.2 -29.6
Q 147.2 -31.65 147.8 -32.45 148.35 -33.25 149.85 -33.25
L 149.85 -33.9 141.55 -33.9 141.55 -33.25
Q 143.05 -33.25 143.6 -32.5
M 117.95 -33.9
L 117.95 -33.25
Q 119.5 -33.25 120 -32.5 120.55 -31.7 120.55 -29.65
L 120.55 -15.2
Q 120.55 -13.15 120 -12.35 119.45 -11.55 117.95 -11.55
L 117.95 -10.9 126.25 -10.9 126.25 -11.55
Q 124.75 -11.55 124.2 -12.35 123.55 -13.15 123.55 -15.2
L 123.55 -21.55 125.45 -21.55
Q 127 -21.55 128.2 -20.55 129.45 -19.6 131.7 -16 133.7 -12.65 135.2 -10.9
L 139.9 -10.9 139.9 -11.55
Q 138.8 -11.65 137.8 -12.6 136.8 -13.55 134.95 -16.5 133.35 -19.2 132.35 -20.4 131.35 -21.6 130.3 -22.25 135.05 -23.65 135.05 -27.9 135.05 -30.55 133 -32.2 130.85 -33.9 127.35 -33.9
L 117.95 -33.9
M 126 -33.05
Q 128.65 -33.05 130.25 -31.6 131.85 -30.15 131.85 -27.8 131.85 -25.45 130.4 -23.95 129 -22.5 126.4 -22.5
L 123.55 -22.5 123.55 -33.05 126 -33.05
M 109.25 -32.5
Q 109.8 -31.7 109.8 -29.6
L 109.8 -15.2
Q 109.8 -13.1 109.2 -12.35 108.7 -11.55 107.2 -11.55
L 107.2 -10.9 115.45 -10.9 115.45 -11.55
Q 114 -11.55 113.45 -12.35 112.85 -13.15 112.85 -15.2
L 112.85 -29.6
Q 112.85 -31.65 113.45 -32.45 114 -33.25 115.45 -33.25
L 115.45 -33.9 107.2 -33.9 107.2 -33.25
Q 108.7 -33.25 109.25 -32.5
M 80.7 -33.9
L 80.7 -33.25
Q 82.15 -33.25 82.75 -32.5 83.3 -31.7 83.3 -29.6
L 83.3 -15.2
Q 83.3 -13.2 82.75 -12.4 82.2 -11.55 80.7 -11.55
L 80.7 -10.9 89 -10.9 89 -11.55
Q 87.5 -11.55 86.9 -12.35 86.35 -13.15 86.35 -15.2
L 86.35 -21.9 98.9 -21.9 98.9 -15.2
Q 98.9 -13.15 98.35 -12.35 97.85 -11.55 96.35 -11.55
L 96.35 -10.9 104.55 -10.9 104.55 -11.55
Q 103.1 -11.55 102.55 -12.35 101.95 -13.15 101.95 -15.2
L 101.95 -29.6
Q 101.95 -31.65 102.55 -32.45 103.1 -33.25 104.55 -33.25
L 104.55 -33.9 96.35 -33.9 96.35 -33.25
Q 97.8 -33.25 98.35 -32.5 98.9 -31.7 98.9 -29.6
L 98.9 -23 86.35 -23 86.35 -29.6
Q 86.35 -31.6 86.9 -32.4 87.5 -33.25 89 -33.25
L 89 -33.9 80.7 -33.9
M 63 -30.4
Q 62.7 -31.3 62.7 -31.85 62.7 -33.25 64.9 -33.25
L 64.9 -33.9 56.5 -33.9 56.5 -33.25
Q 57.8 -33.25 58.5 -32.7 59.25 -32.1 59.7 -30.75
L 60.2 -29.2 55.35 -15.8 49.95 -30.45
Q 49.65 -31.25 49.65 -31.8 49.65 -33 51.65 -33.25
L 51.65 -33.9 43.1 -33.9 43.1 -33.25
Q 44.45 -33.25 44.95 -32.95 45.55 -32.7 46 -31.9 46.45 -31.15 47 -29.6
L 54.05 -10.55 54.7 -10.55 60.85 -27.55 67.1 -10.55 67.8 -10.55 74.3 -28.55
Q 75.2 -31.1 76.1 -32.1 77 -33.15 78.35 -33.25
L 78.35 -33.9 71.4 -33.9 71.4 -33.3
Q 73.7 -33.3 73.7 -31.3 73.7 -30.3 73.1 -28.75
L 68.4 -15.8 63 -30.4
M 35.5 -34.2
L 33.15 -34.2 26.75 -15.15
Q 26 -13.05 25.35 -12.4 24.65 -11.75 23.35 -11.55
L 23.35 -10.9 29.3 -10.9 29.3 -11.55
Q 27.5 -11.6 27.5 -13.05 27.5 -13.8 28.05 -15.55
L 29.6 -20.2 37.05 -20.2 39.2 -13.8
Q 39.35 -13.3 39.35 -12.9 39.35 -11.55 37.4 -11.55
L 37.4 -10.9 45.5 -10.9 45.5 -11.55
Q 44.05 -11.55 43.4 -12.05 42.8 -12.6 42.2 -14.35
L 35.5 -34.2
M 36.6 -21.65
L 30.05 -21.65 33.3 -31.4 36.6 -21.65
M 22.6 -32.1
Q 23.7 -31.4 24.1 -29.5
L 24.6 -29.5 24.6 -34.75 23.9 -34.75
Q 22.85 -33.9 20.25 -33.9
L 8.15 -33.9
Q 5.6 -33.9 4.7 -34.75
L 3.95 -34.75 3.95 -29.5 4.7 -29.5
Q 4.85 -31.25 5.9 -32 7 -32.8 9.4 -32.8
L 12.75 -32.8 12.75 -15.2
Q 12.75 -13.2 12.15 -12.4 11.6 -11.55 10.1 -11.55
L 10.1 -10.9 18.3 -10.9 18.3 -11.55
Q 16.75 -11.55 16.3 -12.25 15.75 -13 15.75 -15.1
L 15.75 -32.8 19.3 -32.8
Q 21.45 -32.8 22.6 -32.1
M 34.7 43.3
L 34.55 43.3
Q 34.4 43.55 34.2 43.55 34.1 43.55 33.85 43.45 33.15 43.25 32.65 43.25 31.35 43.25 30.5 44.1 29.65 44.95 29.65 46.2 29.65 47.5 30.45 48.25 31.2 49.05 32.5 49.05 33.9 49.05 34.75 47.9
L 34.75 47.65
Q 34.3 48.1 33.9 48.3 33.5 48.55 32.95 48.55 32.05 48.55 31.5 47.85 31 47.15 31 45.95 31 44.85 31.4 44.2 31.9 43.55 32.65 43.55 33.35 43.55 33.85 44 34.35 44.45 34.55 45.3
L 34.7 45.3 34.7 43.3
M 24.3 43.75
Q 24.45 43.9 24.45 44.3
L 24.45 47.85
Q 24.45 48.35 24.3 48.5 24.15 48.7 23.8 48.8
L 23.8 48.9 28 48.9 28.1 47.6 27.9 47.6
Q 27.55 48.6 26.75 48.6
L 26.45 48.6
Q 26 48.6 25.85 48.45 25.7 48.3 25.7 47.9
L 25.7 46.3 26.65 46.3
Q 27.35 46.3 27.45 47
L 27.6 47 27.6 45.25 27.45 45.25
Q 27.35 45.65 27.15 45.85 27 46 26.65 46
L 25.7 46 25.7 43.7 26.75 43.7
Q 27.2 43.7 27.45 43.9 27.6 44.1 27.75 44.6
L 27.9 44.6 27.9 43.35 23.8 43.35 23.8 43.5
Q 24.15 43.6 24.3 43.75
M 18.45 46.25
Q 19 46.25 19.2 46.35 19.35 46.45 19.5 46.7 19.7 46.9 20.05 47.6 20.5 48.55 20.85 48.9
L 22.45 48.9 22.45 48.8
Q 22.1 48.75 21.95 48.5 21.7 48.3 21.3 47.5 20.85 46.7 20.65 46.4 20.4 46.15 20.25 46.1
L 20.25 46.05
Q 20.75 45.95 21.05 45.6 21.3 45.2 21.3 44.75 21.3 44.1 20.8 43.75 20.25 43.35 19.2 43.35
L 16.55 43.35 16.55 43.5
Q 16.95 43.6 17.1 43.75 17.25 43.9 17.25 44.25
L 17.25 48.05
Q 17.25 48.7 16.55 48.8
L 16.55 48.9 19.2 48.9 19.2 48.8
Q 18.8 48.7 18.6 48.55 18.45 48.35 18.45 47.95
L 18.45 46.25
M 18.45 43.7
L 18.85 43.7
Q 20 43.7 20 44.8 20 45.4 19.7 45.7 19.4 46 18.75 46 18.6 46 18.45 46
L 18.45 43.7
M 9.75 44.05
Q 8.9 44.9 8.9 46.15 8.9 47.4 9.75 48.25 10.6 49.05 11.95 49.05 13.25 49.05 14.1 48.25 14.95 47.4 14.95 46.15 14.95 44.9 14.1 44.05 13.25 43.25 11.95 43.25 10.6 43.25 9.75 44.05
M 13.2 44.25
Q 13.65 44.9 13.65 46.15 13.65 47.4 13.15 48.05 12.75 48.75 11.95 48.75 11.15 48.75 10.65 48.05 10.25 47.4 10.25 46.2 10.25 44.9 10.65 44.25 11.1 43.55 11.95 43.55 12.75 43.55 13.2 44.25
M 3.95 48.55
Q 3.85 48.7 3.4 48.8
L 3.4 48.9 6 48.9 6 48.8
Q 5.65 48.7 5.5 48.55 5.35 48.35 5.35 47.95
L 5.35 46.25 6.2 46.25
Q 6.6 46.25 6.75 46.45 7 46.6 7.05 46.95
L 7.2 46.95 7.2 45.25 7.05 45.25
Q 6.95 45.65 6.75 45.8 6.6 46 6.2 46
L 5.35 46 5.35 43.7 6.3 43.7
Q 6.65 43.7 6.9 43.85 7.15 44.05 7.3 44.4
L 7.45 44.4 7.35 43.35 3.4 43.35 3.4 43.5
Q 3.85 43.65 3.95 43.8 4.1 43.95 4.1 44.25
L 4.1 47.85
Q 4.1 48.35 3.95 48.55
M 80.9 43.3
L 80.75 43.3
Q 80.55 43.35 80.15 43.35
L 76.6 43.35
Q 76.25 43.35 76.05 43.3
L 75.85 43.3 75.8 44.6 76 44.6
Q 76.15 44.15 76.45 43.9 76.7 43.7 77.25 43.7
L 77.75 43.7 77.75 47.9
Q 77.75 48.35 77.6 48.55 77.45 48.7 77.1 48.8
L 77.1 48.9 79.7 48.9 79.7 48.8
Q 79.25 48.7 79.15 48.55 79 48.35 79 47.9
L 79 43.7 79.55 43.7
Q 80.05 43.7 80.35 43.9 80.65 44.15 80.8 44.6
L 80.95 44.6 80.9 43.3
M 68.7 44.25
Q 69.2 43.55 70.05 43.55 70.65 43.55 71.15 43.95 71.7 44.25 71.9 44.95
L 72.05 44.95 72.05 43.35 71.9 43.35
Q 71.75 43.55 71.5 43.55 71.35 43.55 71.05 43.45 70.45 43.25 69.95 43.25 68.65 43.25 67.75 44.1 66.9 44.95 66.9 46.15 66.9 46.95 67.35 47.65 67.7 48.35 68.35 48.7 69.05 49.05 69.95 49.05 71.25 49.05 72.05 48.7
L 72.05 47.5
Q 72.05 47.1 72.2 46.95 72.3 46.75 72.65 46.65
L 72.65 46.5 70.3 46.5 70.3 46.65
Q 70.9 46.8 70.9 47.35
L 70.9 48.15
Q 70.9 48.75 70.05 48.75 69.2 48.75 68.7 48.1 68.25 47.5 68.25 46.25 68.25 45 68.7 44.25
M 59.35 43.5
Q 59.55 43.55 59.7 43.65 59.8 43.75 60.15 44.1
L 60.15 47.85
Q 60.15 48.3 59.95 48.5 59.8 48.7 59.4 48.8
L 59.4 48.9 61.3 48.9 61.3 48.8
Q 60.85 48.7 60.65 48.5 60.5 48.3 60.5 47.85
L 60.5 44.5 64.5 48.95 64.65 48.95 64.65 44.45
Q 64.65 43.55 65.5 43.5
L 65.5 43.35 63.6 43.35 63.6 43.5
Q 64 43.6 64.15 43.85 64.3 44.05 64.3 44.6
L 64.3 47.05 61.05 43.35 59.35 43.35 59.35 43.5
M 55.3 43.35
L 55.3 43.5
Q 55.7 43.65 55.85 43.8 56 43.95 56 44.3
L 56 47.85
Q 56 48.25 55.9 48.35 55.85 48.5 55.7 48.6 55.6 48.7 55.3 48.8
L 55.3 48.9 57.9 48.9 57.9 48.8
Q 57.45 48.65 57.35 48.5 57.2 48.35 57.2 47.95
L 57.2 44.4
Q 57.2 43.95 57.35 43.8 57.45 43.6 57.9 43.5
L 57.9 43.35 55.3 43.35
M 41.65 48.5
Q 41.4 48.25 41.15 47.7
L 39.5 43.25 38.75 43.25 37.15 47.5
Q 36.9 48.1 36.65 48.4 36.45 48.7 36.1 48.8
L 36.1 48.9 37.9 48.9 37.9 48.8
Q 37.35 48.6 37.35 48.25 37.35 48.05 37.45 47.8
L 37.7 47.05 39.7 47.05 40.05 47.9
Q 40.15 48.2 40.15 48.35 40.15 48.5 40 48.6 39.85 48.7 39.5 48.8
L 39.5 48.9 42.2 48.9 42.2 48.8
Q 41.9 48.75 41.65 48.5
M 37.9 46.65
L 38.7 44.4 39.55 46.65 37.9 46.65
M 48.9 43.3
L 48.7 43.3 48.65 44.6 48.85 44.6
Q 49 44.15 49.25 43.9 49.55 43.7 50.1 43.7
L 50.6 43.7 50.6 47.9
Q 50.6 48.35 50.45 48.55 50.3 48.7 49.95 48.8
L 49.95 48.9 52.55 48.9 52.55 48.8
Q 52.1 48.7 52 48.55 51.85 48.35 51.85 47.9
L 51.85 43.7 52.4 43.7
Q 52.9 43.7 53.2 43.9 53.5 44.15 53.65 44.6
L 53.8 44.6 53.75 43.3 53.6 43.3
Q 53.4 43.35 53 43.35
L 49.45 43.35
Q 49.1 43.35 48.9 43.3
M 46.85 43.25
L 46.7 43.25
Q 46.55 43.35 46.45 43.35 46.3 43.35 45.95 43.35 45.65 43.25 45.4 43.25 44.65 43.25 44.1 43.7 43.65 44.15 43.65 44.85 43.65 45.15 43.8 45.5 43.85 45.8 44.1 46.05 44.4 46.25 45.1 46.7 45.9 47.15 46.1 47.45 46.3 47.7 46.3 47.95 46.3 48.3 46 48.55 45.7 48.75 45.25 48.75 44.7 48.75 44.3 48.4 43.9 48 43.8 47.35
L 43.65 47.35 43.65 49 43.8 49
Q 43.85 48.8 44.05 48.8 44.15 48.8 44.5 48.9 45 49.05 45.45 49.05 46.15 49.05 46.65 48.65 47.2 48.2 47.2 47.45 47.2 46.95 46.9 46.55 46.7 46.25 46.5 46.05 46.3 45.9 45.55 45.45 44.8 45 44.75 44.9 44.6 44.75 44.5 44.6 44.45 44.45 44.45 44.25 44.45 44 44.7 43.75 44.95 43.55 45.35 43.55 45.75 43.55 46.15 43.9 46.55 44.25 46.7 44.7
L 46.85 44.7 46.85 43.25
M 54.75 28.05
Q 54.75 27.35 55.3 25.85
L 56.65 21.7 63.2 21.7 65.1 27.4
Q 65.3 27.85 65.3 28.15 65.3 29.4 63.55 29.4
L 63.55 29.95 70.7 29.95 70.7 29.4
Q 69.4 29.4 68.85 28.9 68.3 28.5 67.8 26.95
L 61.9 9.4 59.8 9.4 54.15 26.15
Q 53.55 28 52.9 28.65 52.25 29.2 51.1 29.4
L 51.1 29.95 56.4 29.95 56.4 29.4
Q 54.75 29.35 54.75 28.05
M 57.1 20.5
L 59.95 11.85 62.85 20.5 57.1 20.5
M 43.15 10.65
Q 45.1 10.65 45.65 11.1 46.25 11.6 46.55 13.05
L 46.95 13.05 46.95 9.65 32.3 9.65 32.3 10.2
Q 33.65 10.2 34.1 10.9 34.6 11.65 34.6 13.45
L 34.6 26.15
Q 34.6 27.95 34.1 28.7 33.65 29.4 32.3 29.4
L 32.3 29.95 46.95 29.95 47.85 26.15 47.3 26.15
Q 46.7 27.45 46.2 28 45.65 28.55 44.95 28.8 44.25 28.95 42.3 28.95
L 38.75 28.95
Q 37.95 28.95 37.6 28.7 37.3 28.35 37.3 27.6
L 37.3 20.3 42.3 20.3
Q 43.9 20.3 44.4 20.65 44.8 20.95 45.15 22.3
L 45.75 22.3 45.75 17.3 45.15 17.3
Q 44.95 18.5 44.6 18.9 44.1 19.3 42.95 19.3
L 37.3 19.3 37.3 10.65 43.15 10.65
M 111 43.35
L 111 43.5
Q 111.4 43.6 111.55 43.75 111.7 43.9 111.7 44.3
L 111.7 47.85
Q 111.7 48.35 111.55 48.5 111.4 48.7 111 48.8
L 111 48.9 115.25 48.9 115.35 47.6 115.15 47.6
Q 114.8 48.6 114 48.6
L 113.65 48.6
Q 113.25 48.6 113.1 48.45 112.9 48.3 112.9 47.9
L 112.9 46.3 113.9 46.3
Q 114.55 46.3 114.65 47
L 114.85 47 114.85 45.25 114.65 45.25
Q 114.55 45.65 114.4 45.85 114.25 46 113.9 46
L 112.9 46 112.9 43.7 114 43.7
Q 114.45 43.7 114.65 43.9 114.85 44.1 115 44.6
L 115.15 44.6 115.15 43.35 111 43.35
M 105.8 43.8
Q 105.95 43.95 105.95 44.3
L 105.95 47.85
Q 105.95 48.35 105.8 48.5 105.65 48.65 105.25 48.8
L 105.25 48.9 109.45 48.9 109.65 47.5 109.45 47.5
Q 109.1 48.1 108.85 48.35 108.55 48.6 108.05 48.6 107.5 48.6 107.3 48.5 107.15 48.35 107.15 48
L 107.15 44.25
Q 107.15 43.95 107.25 43.8 107.4 43.65 107.85 43.5
L 107.85 43.35 105.25 43.35 105.25 43.5
Q 105.65 43.65 105.8 43.8
M 100 48.5
Q 99.85 48.7 99.45 48.8
L 99.45 48.9 103.65 48.9 103.75 47.6 103.6 47.6
Q 103.25 48.6 102.45 48.6
L 102.1 48.6
Q 101.7 48.6 101.55 48.45 101.35 48.3 101.35 47.9
L 101.35 46.3 102.35 46.3
Q 103 46.3 103.1 47
L 103.3 47 103.3 45.25 103.1 45.25
Q 103 45.65 102.8 45.85 102.7 46 102.35 46
L 101.35 46 101.35 43.7 102.45 43.7
Q 102.85 43.7 103.1 43.9 103.3 44.1 103.45 44.6
L 103.6 44.6 103.6 43.35 99.45 43.35 99.45 43.5
Q 99.85 43.6 100 43.75 100.1 43.9 100.1 44.3
L 100.1 47.85
Q 100.1 48.35 100 48.5
M 90.6 43.35
L 90.6 43.5
Q 90.95 43.6 91.1 43.75 91.25 43.9 91.25 44.3
L 91.25 47.85
Q 91.25 48.35 91.1 48.5 90.95 48.7 90.6 48.8
L 90.6 48.9 94.8 48.9 94.9 47.6 94.7 47.6
Q 94.4 48.6 93.6 48.6
L 93.25 48.6
Q 92.8 48.6 92.7 48.45 92.5 48.3 92.5 47.9
L 92.5 46.3 93.5 46.3
Q 94.15 46.3 94.25 47
L 94.45 47 94.45 45.25 94.25 45.25
Q 94.15 45.65 93.95 45.85 93.8 46 93.5 46
L 92.5 46 92.5 43.7 93.6 43.7
Q 94 43.7 94.25 43.9 94.45 44.1 94.55 44.6
L 94.7 44.6 94.7 43.35 90.6 43.35
M 84.35 45.85
L 84.35 44.25
Q 84.35 43.95 84.5 43.8 84.6 43.6 85 43.5
L 85 43.35 82.4 43.35 82.4 43.5
Q 82.8 43.65 82.95 43.8 83.1 43.95 83.1 44.3
L 83.1 47.85
Q 83.1 48.25 83.05 48.35 83 48.5 82.85 48.6 82.75 48.7 82.4 48.8
L 82.4 48.9 85 48.9 85 48.8
Q 84.6 48.65 84.5 48.5 84.35 48.35 84.35 47.95
L 84.35 46.2 87 46.2 87 47.85
Q 87 48.35 86.85 48.5 86.7 48.7 86.35 48.8
L 86.35 48.9 88.95 48.9 88.95 48.8
Q 88.5 48.65 88.35 48.5 88.25 48.35 88.25 47.95
L 88.25 44.4
Q 88.25 43.95 88.35 43.8 88.45 43.65 88.95 43.5
L 88.95 43.35 86.35 43.35 86.35 43.5
Q 86.75 43.65 86.85 43.8 87 43.95 87 44.3
L 87 45.85 84.35 45.85
M 88.25 8.9
Q 87.3 9.65 85 9.65
L 74.35 9.65
Q 72.1 9.65 71.25 8.9
L 70.7 8.9 70.7 13.5 71.25 13.5
Q 71.4 11.95 72.35 11.3 73.35 10.65 75.45 10.65
L 78.35 10.65 78.35 26.15
Q 78.35 27.9 77.9 28.65 77.4 29.4 76.1 29.4
L 76.1 29.95 83.3 29.95 83.3 29.4
Q 81.95 29.4 81.55 28.75 81.05 28.05 81.05 26.25
L 81.05 10.65 84.15 10.65
Q 86.15 10.65 87.1 11.25 88.1 11.85 88.45 13.5
L 88.85 13.5 88.85 8.9 88.25 8.9
M 111.55 10.9
Q 112 10.2 113.35 10.2
L 113.35 9.65 106.05 9.65 106.05 10.2
Q 107.35 10.2 107.85 10.9 108.3 11.6 108.3 13.45
L 108.3 19.25 97.25 19.25 97.25 13.45
Q 97.25 11.65 97.75 10.95 98.25 10.2 99.6 10.2
L 99.6 9.65 92.25 9.65 92.25 10.2
Q 93.6 10.2 94.05 10.9 94.55 11.6 94.55 13.45
L 94.55 26.15
Q 94.55 27.95 94.05 28.65 93.6 29.4 92.25 29.4
L 92.25 29.95 99.6 29.95 99.6 29.4
Q 98.25 29.4 97.75 28.7 97.25 27.95 97.25 26.15
L 97.25 20.25 108.3 20.25 108.3 26.15
Q 108.3 27.95 107.9 28.7 107.4 29.4 106.05 29.4
L 106.05 29.95 113.35 29.95 113.35 29.4
Q 112 29.4 111.55 28.7 111 27.95 111 26.15
L 111 13.45
Q 111 11.65 111.55 10.9
M 148.95 43.25
L 148.8 43.25
Q 148.65 43.35 148.5 43.35 148.35 43.35 148.05 43.35 147.7 43.25 147.45 43.25 146.7 43.25 146.2 43.7 145.7 44.15 145.7 44.85 145.7 45.15 145.85 45.5 145.95 45.8 146.2 46.05 146.45 46.25 147.15 46.7 148 47.15 148.15 47.45 148.35 47.7 148.35 47.95 148.35 48.3 148.05 48.55 147.8 48.75 147.3 48.75 146.75 48.75 146.35 48.4 146 48 145.85 47.35
L 145.7 47.35 145.7 49 145.85 49
Q 145.95 48.8 146.15 48.8 146.2 48.8 146.55 48.9 147.1 49.05 147.5 49.05 148.2 49.05 148.75 48.65 149.25 48.2 149.25 47.45 149.25 46.95 148.95 46.55 148.8 46.25 148.55 46.05 148.35 45.9 147.6 45.45 146.9 45 146.8 44.9 146.65 44.75 146.55 44.6 146.5 44.45 146.5 44.25 146.5 44 146.75 43.75 147.05 43.55 147.4 43.55 147.85 43.55 148.2 43.9 148.65 44.25 148.8 44.7
L 148.95 44.7 148.95 43.25
M 136.1 43.5
Q 136.5 43.6 136.65 43.85 136.8 44.05 136.8 44.6
L 136.8 47.05 133.55 43.35 131.85 43.35 131.85 43.5
Q 132.05 43.55 132.2 43.65 132.3 43.75 132.65 44.1
L 132.65 47.85
Q 132.65 48.3 132.45 48.5 132.3 48.7 131.9 48.8
L 131.9 48.9 133.8 48.9 133.8 48.8
Q 133.35 48.7 133.15 48.5 133 48.3 133 47.85
L 133 44.5 137 48.95 137.15 48.95 137.15 44.45
Q 137.15 43.55 138 43.5
L 138 43.35 136.1 43.35 136.1 43.5
M 139.35 43.3
L 139.15 43.3 139.1 44.6 139.3 44.6
Q 139.45 44.15 139.75 43.9 140 43.7 140.55 43.7
L 141.05 43.7 141.05 47.9
Q 141.05 48.35 140.9 48.55 140.8 48.7 140.4 48.8
L 140.4 48.9 143 48.9 143 48.8
Q 142.6 48.7 142.45 48.55 142.3 48.35 142.3 47.9
L 142.3 43.7 142.85 43.7
Q 143.4 43.7 143.65 43.9 143.95 44.15 144.1 44.6
L 144.25 44.6 144.2 43.3 144.05 43.3
Q 143.85 43.35 143.5 43.35
L 139.9 43.35
Q 139.55 43.35 139.35 43.3
M 124.15 43.5
L 124.15 43.35 122.3 43.35 120.85 47 119.35 43.35 117.35 43.35 117.35 43.5
Q 117.85 43.55 118.15 43.9
L 117.6 47.55
Q 117.5 48.2 117.3 48.45 117.1 48.75 116.65 48.8
L 116.65 48.9 118.65 48.9 118.65 48.8
Q 118 48.75 118 47.95 118 47.85 118 47.65
L 118.45 44.35 120.25 48.9 120.5 48.9 122.3 44.35 122.75 47.55
Q 122.75 47.8 122.75 47.95 122.75 48.3 122.65 48.5 122.5 48.7 122.15 48.8
L 122.15 48.9 124.9 48.9 124.9 48.8
Q 124.45 48.7 124.3 48.5 124.1 48.25 124.05 47.85
L 123.55 44.4
Q 123.55 44.3 123.55 44.2 123.55 43.9 123.65 43.75 123.8 43.6 124.15 43.5
M 126.3 43.35
L 126.3 43.5
Q 126.7 43.6 126.85 43.75 127 43.9 127 44.3
L 127 47.85
Q 127 48.35 126.85 48.5 126.7 48.7 126.3 48.8
L 126.3 48.9 130.55 48.9 130.65 47.6 130.45 47.6
Q 130.1 48.6 129.3 48.6
L 129 48.6
Q 128.55 48.6 128.4 48.45 128.2 48.3 128.2 47.9
L 128.2 46.3 129.2 46.3
Q 129.9 46.3 129.95 47
L 130.15 47 130.15 45.25 129.95 45.25
Q 129.9 45.65 129.7 45.85 129.55 46 129.2 46
L 128.2 46 128.2 43.7 129.3 43.7
Q 129.75 43.7 129.95 43.9 130.15 44.1 130.3 44.6
L 130.45 44.6 130.45 43.35 126.3 43.35
M 127.95 10.65
Q 129.9 10.65 130.45 11.1 131 11.6 131.35 13.05
L 131.7 13.05 131.7 9.65 117.1 9.65 117.1 10.2
Q 118.4 10.2 118.9 10.9 119.35 11.65 119.35 13.45
L 119.35 26.15
Q 119.35 27.95 118.9 28.7 118.4 29.4 117.1 29.4
L 117.1 29.95 131.7 29.95 132.65 26.15 132.05 26.15
Q 131.5 27.45 130.95 28 130.45 28.55 129.75 28.8 129 28.95 127.1 28.95
L 123.55 28.95
Q 122.7 28.95 122.4 28.7 122.05 28.35 122.05 27.6
L 122.05 20.3 127.1 20.3
Q 128.7 20.3 129.15 20.65 129.6 20.95 129.9 22.3
L 130.55 22.3 130.55 17.3 129.9 17.3
Q 129.75 18.5 129.35 18.9 128.9 19.3 127.75 19.3
L 122.05 19.3 122.05 10.65 127.95 10.65
M 149.65 11.15
Q 147.8 9.65 144.7 9.65
L 136.35 9.65 136.35 10.2
Q 137.7 10.2 138.15 10.9 138.65 11.6 138.65 13.4
L 138.65 26.15
Q 138.65 27.95 138.15 28.7 137.7 29.4 136.35 29.4
L 136.35 29.95 143.65 29.95 143.65 29.4
Q 142.4 29.4 141.85 28.7 141.35 27.95 141.35 26.15
L 141.35 20.55 143 20.55
Q 144.35 20.55 145.4 21.45 146.5 22.3 148.45 25.45 150.3 28.4 151.6 29.95
L 155.75 29.95 155.75 29.4
Q 154.75 29.3 153.85 28.5 152.95 27.65 151.4 25 149.9 22.6 149.05 21.6 148.15 20.55 147.25 19.95 151.5 18.7 151.5 14.95 151.5 12.6 149.65 11.15
M 143.5 10.4
Q 145.8 10.4 147.2 11.65 148.65 12.95 148.65 15.05 148.65 17.1 147.35 18.4 146.1 19.7 143.85 19.7
L 141.35 19.7 141.35 10.4 143.5 10.4
M -1.95 10.2
Q -0.75 10.2 -0.3 10.5 0.2 10.7 0.55 11.45 1 12.1 1.5 13.45
L 7.7 30.25 8.3 30.25 13.7 15.25 19.25 30.25 19.85 30.25 25.6 14.35
Q 26.4 12.15 27.15 11.25 27.95 10.3 29.2 10.2
L 29.2 9.65 23 9.65 23 10.2
Q 25 10.2 25 11.95 25 12.85 24.55 14.25
L 20.35 25.6 15.6 12.7
Q 15.3 11.95 15.3 11.45 15.3 10.2 17.3 10.2
L 17.3 9.65 9.85 9.65 9.85 10.2
Q 11.05 10.2 11.65 10.7 12.25 11.25 12.7 12.5
L 13.15 13.75 8.8 25.6 4.05 12.65
Q 3.8 12 3.8 11.55 3.8 10.45 5.6 10.2
L 5.6 9.65 -1.95 9.65 -1.95 10.2 Z"/>
</g>

<g id="copia_logoiso_horizontal_0_Layer0_1_FILL">
<path fill="#FFFFFF" fill-opacity="0" stroke="none" d="
M 184.3 -77.75
L -184.25 -77.75 -184.25 77.75 184.3 77.75 184.3 -77.75 Z"/>
</g>

<g id="copia_logoiso_horizontal_0_Layer0_2_FILL">
<path fill="#ADC5E6" stroke="none" d="
M -83.15 20.3
Q -55.3 31.55 -44.55 -27.8 -57.15 21.55 -83.15 20.3
M -138.45 -27.8
Q -127.7 31.55 -99.85 20.3 -125.85 21.55 -138.45 -27.8
M -127.95 40.85
Q -135.15 41.3 -142.4 25.4 -142.25 59.25 -97.45 54.8 -97.85 54.45 -98.1 54 -99.85 51.15 -107.45 51.15 -115.15 51.1 -118.35 39.1 -121.6 27.05 -127.8 23.1 -134 19.15 -138.6 14.05 -143.25 8.95 -145.9 -6.15 -146.95 6.55 -141.95 14.15 -136.95 21.7 -131.25 28.55 -125.55 35.35 -127.95 40.85
M -99.6 42.6
Q -95.2 46.05 -91.5 45.65 -87.8 46.05 -83.4 42.6 -79 39.15 -73.6 42.1 -73.85 24.2 -91.5 23.3 -109.15 24.2 -109.4 42.1 -104 39.15 -99.6 42.6
M -44.4 14.05
Q -49 19.15 -55.2 23.1 -61.4 27.05 -64.65 39.1 -67.85 51.1 -75.55 51.15 -83.15 51.15 -84.9 54 -85.15 54.45 -85.55 54.8 -41.4 57.55 -40.6 25.4 -47.85 41.3 -55.05 40.85 -57.45 35.35 -51.75 28.55 -46.05 21.7 -41.05 14.15 -36.05 6.55 -37.1 -6.15 -39.75 8.95 -44.4 14.05
M -79.85 -29.75
L -74.55 -56.15 -86 -32.15
Q -82.95 -31.4 -79.85 -29.75
M -78.1 -28.8
Q -75.7 -27.35 -73.3 -25.3
L -60 -51.85 -78.1 -28.8
M -61.2 -17.75
Q -49.15 -26.05 -44.55 -40.85 -52.4 -26.2 -64.75 -19.5 -77.05 -12.75 -83.5 -2.3 -89.95 8.1 -85.5 20.3 -86.95 9.8 -80.1 0.15 -73.2 -9.5 -61.2 -17.75
M -68.65 -4
Q -71.05 -3.15 -72.8 -0.75 -74.65 1.7 -74.85 4.25 -74.9 6.8 -73.3 8 -71.65 9.25 -69.25 8.4 -66.85 7.6 -65 5.2 -63.2 2.75 -63.05 0.2 -62.9 -2.35 -64.6 -3.65 -66.15 -4.85 -68.65 -4
M -103.15 -29.75
Q -100.05 -31.4 -97 -32.15
L -108.45 -56.15 -103.15 -29.75
M -91.5 -5.1
Q -95.7 -12.45 -103.8 -18.55 -111.85 -24.7 -116.35 -27.5 -120.8 -30.2 -136.6 -45.15 -124.3 -29.4 -117.6 -25.5 -110.9 -21.55 -101.5 -12.8 -92.1 -4.05 -91.5 14.1 -90.9 -4.05 -81.5 -12.8 -72.1 -21.55 -65.4 -25.5 -58.7 -29.4 -46.4 -45.15 -62.2 -30.2 -66.65 -27.5 -71.15 -24.7 -79.2 -18.55 -87.3 -12.45 -91.5 -5.1
M -114.35 -4
Q -116.85 -4.85 -118.4 -3.65 -120.1 -2.35 -119.95 0.2 -119.8 2.75 -118 5.2 -116.15 7.6 -113.75 8.4 -111.35 9.25 -109.7 8 -108.1 6.8 -108.15 4.25 -108.35 1.7 -110.2 -0.75 -111.95 -3.15 -114.35 -4
M -109.7 -25.3
Q -107.3 -27.35 -104.9 -28.8
L -123 -51.85 -109.7 -25.3
M -91.5 -30.25
Q -92.65 -30.25 -93.7 -30.1 -99.6 -29.3 -105.2 -23.8 -96.15 -17.6 -91.5 -11.5 -86.85 -17.6 -77.8 -23.8 -83.4 -29.3 -89.3 -30.1 -90.35 -30.25 -91.5 -30.25
M -94.65 -26.45
Q -94.55 -26.55 -94.4 -26.55
L -88.65 -26.55
Q -88.5 -26.55 -88.35 -26.45 -88.25 -26.35 -88.25 -26.2 -88.25 -26.1 -88.35 -25.95
L -91.05 -22.95 -88.35 -19.85
Q -88.25 -19.75 -88.25 -19.6 -88.25 -19.5 -88.35 -19.35 -88.5 -19.25 -88.65 -19.25
L -94.4 -19.25
Q -94.55 -19.25 -94.65 -19.35 -94.75 -19.5 -94.75 -19.6 -94.75 -19.75 -94.65 -19.85
L -91.95 -22.95 -94.65 -25.95
Q -94.75 -26.1 -94.75 -26.2 -94.75 -26.35 -94.65 -26.45
M -91.5 -22.4
L -93.6 -20 -89.45 -20 -91.5 -22.4
M -89.45 -25.85
L -93.6 -25.85 -91.5 -23.5 -89.45 -25.85
M -138.45 -40.85
Q -133.85 -26.05 -121.8 -17.75 -109.8 -9.5 -102.9 0.15 -96.05 9.8 -97.5 20.3 -93.05 8.1 -99.5 -2.3 -105.95 -12.75 -118.25 -19.5 -130.6 -26.2 -138.45 -40.85
M -91.5 -57.75
Q -91.55 -57.75 -91.65 -57.75
L -95.05 -32.5
Q -94.65 -32.6 -94.25 -32.65 -92.9 -32.8 -91.5 -32.8 -90.1 -32.8 -88.75 -32.65 -88.35 -32.6 -87.95 -32.5
L -91.35 -57.75
Q -91.45 -57.75 -91.5 -57.75 Z"/>
</g>

<path id="copia_logoiso_horizontal_0_Layer0_0_1_STROKES" stroke="#8CABCA" stroke-width="1" stroke-linejoin="round" stroke-linecap="round" fill="none" d="
M 1.5 -1.55
L 152.3 -1.55"/>

<path id="copia_logoiso_horizontal_0_Layer0_2_MEMBER_0_1_STROKES" stroke="#8CABCA" stroke-width="1" stroke-linejoin="round" stroke-linecap="round" fill="none" d="
M -74.73936920166015 9.824847412109374
Q -72.5215850830078 11.424560546875 -69.394873046875 10.370204162597656 -66.19544677734375 9.315847778320311 -63.79587707519531 6.0800643920898425 -61.35995025634766 2.9533523559570316 -61.21452178955079 -0.46421661376953116 -61.10545043945312 -3.8090713500976565 -63.21416320800782 -5.481498718261719 -65.3228759765625 -7.044854736328125 -68.55865936279297 -5.954141235351562 -71.68537139892578 -4.790713500976563 -74.08494110107422 -1.6640014648437504 -76.48451080322266 1.5354248046874996 -76.66629638671876 4.880279541015626 -76.81172485351563 8.225134277343749 -74.73936920166015 9.824847412109374 Z
M -108.26063079833985 9.824847412109374
Q -110.4784149169922 11.424560546875 -113.605126953125 10.370204162597656 -116.80455322265625 9.315847778320311 -119.2041229248047 6.0800643920898425 -121.64004974365234 2.9533523559570316 -121.78547821044921 -0.46421661376953116 -121.89454956054688 -3.8090713500976565 -119.78583679199218 -5.481498718261719 -117.6771240234375 -7.044854736328125 -114.44134063720703 -5.954141235351562 -111.31462860107422 -4.790713500976563 -108.91505889892578 -1.6640014648437504 -106.51548919677734 1.5354248046874996 -106.33370361328124 4.880279541015626 -106.18827514648437 8.225134277343749 -108.26063079833985 9.824847412109374 Z"/>
</defs>

<g transform="matrix( 1, 0, 0, 1, 184.25,77.75) ">
<g transform="matrix( 1, 0, 0, 1, 0,0) ">
<use xlink:href="#copia_logoiso_horizontal_0_Layer0_0_FILL"/>

<use xlink:href="#copia_logoiso_horizontal_0_Layer0_0_1_STROKES"/>
</g>

<g transform="matrix( 1, 0, 0, 1, 0,0) ">
<use xlink:href="#copia_logoiso_horizontal_0_Layer0_1_FILL"/>
</g>

<g transform="matrix( 1, 0, 0, 1, 0,0) ">
<use xlink:href="#copia_logoiso_horizontal_0_Layer0_2_FILL"/>
</g>

<g transform="matrix( 0.727142333984375, 0, 0, 0.727142333984375, -91.5,-3.7) ">
<use xlink:href="#copia_logoiso_horizontal_0_Layer0_2_MEMBER_0_1_STROKES" transform="matrix( 1.375244140625, 0, 0, 1.375244140625, 125.8,5.05) "/>
</g>
</g>
</svg>
