
<svg xmlns="http://www.w3.org/2000/svg" version="1.1" xmlns:xlink="http://www.w3.org/1999/xlink" preserveAspectRatio="none" x="0px" y="0px" width="368px" height="155px" viewBox="0 0 368 155">
<defs>
<g id="logo_0_Layer0_0_FILL">
<path fill="#27528D" stroke="none" d="
M 64.8 24.4
Q 58.45 31.4 49.9 36.85 41.4 42.3 36.95 58.85 32.5 75.35 21.95 75.4 11.45 75.45 9.05 79.35 8.680078125 79.9638671875 8.2 80.4 68.879296875 84.215625 70 40 60.05 61.9 50.15 61.25 46.85 53.7 54.65 44.35 62.5 34.95 69.35 24.55 76.25 14.1 74.8 -3.4 71.2 17.4 64.8 24.4
M -69.4 24.5
Q -62.5056640625 34.963671875 -54.7 44.3 -46.840234375 53.688671875 -50.15 61.25 -60.075 61.8896484375 -70 40 -69.780859375 86.555859375 -8.2 80.4 -8.680859375 79.9626953125 -9.05 79.35 -11.4458984375 75.4501953125 -22 75.4 -32.513671875 75.348046875 -36.95 58.8 -41.3841796875 42.305859375 -49.95 36.85 -58.459375 31.3888671875 -64.85 24.4 -71.2001953125 17.419140625 -74.8 -3.4 -76.249609375 14.0822265625 -69.4 24.5
M -24.6 63
Q -17.2 58.95 -11.15 63.7 -5.1 68.4 0 67.85 5.1 68.4 11.15 63.7 17.2 58.95 24.6 63 24.3 38.35 0 37.1 -24.3 38.35 -24.6 63
M 16.9 -20.45
Q 5.8 -12.05 0 -1.95 -5.8 -12.05 -16.9 -20.45 -28 -28.9 -34.15 -32.7 -40.3 -36.45 -62 -57 -45.1 -35.35 -35.9 -29.95 -26.7 -24.55 -13.75 -12.5 -0.85 -0.45 0 24.45 0.85 -0.45 13.75 -12.5 26.7 -24.55 35.9 -29.95 45.1 -35.35 62 -57 40.3 -36.45 34.15 -32.7 28 -28.9 16.9 -20.45
M 3.05 -36.3
Q 1.55 -36.5 0 -36.5 -1.55 -36.5 -3.05 -36.3 -11.15 -35.2 -18.85 -27.65 -6.4 -19.15 0 -10.75 6.4 -19.15 18.85 -27.65 11.15 -35.2 3.05 -36.3
M 4.45 -31
Q 4.4583984375 -30.77578125 4.3 -30.65
L 0.65 -26.45 4.3 -22.25
Q 4.4578125 -22.0740234375 4.45 -21.9 4.442578125 -21.681640625 4.3 -21.55 4.1525390625 -21.405859375 3.95 -21.4
L -4 -21.4
Q -4.20234375 -21.40546875 -4.35 -21.55 -4.4931640625 -21.6826171875 -4.5 -21.9 -4.5080078125 -22.0734375 -4.4 -22.25
L -0.65 -26.45 -4.4 -30.65
Q -4.5083984375 -30.77578125 -4.5 -31 -4.4939453125 -31.1673828125 -4.35 -31.3 -4.2021484375 -31.4451171875 -4 -31.45
L 3.95 -31.45
Q 4.1521484375 -31.4451171875 4.3 -31.3 4.4439453125 -31.1673828125 4.45 -31
M 2.85 -22.4
L 0 -25.7 -2.9 -22.4 2.85 -22.4
M 0 -27.2
L 2.85 -30.45 -2.9 -30.45 0 -27.2
M 0.2 -74.35
Q 0.1 -74.35 0 -74.35 -0.1 -74.35 -0.2 -74.35
L -4.85 -39.6
Q -4.35 -39.75 -3.8 -39.8 -1.9 -40 0 -40 1.9 -40 3.8 -39.8 4.35 -39.75 4.85 -39.6
L 0.2 -74.35
M 64.6 -33.15
Q 47.25 34.75 11.5 33 49.8 48.5 64.6 -33.15
M 25 16.1
Q 27.3 17.8 30.6 16.65 33.9 15.55 36.45 12.25 38.95 8.85 39.1 5.35 39.3 1.85 37 0.1 34.85 -1.55 31.45 -0.4 28.15 0.75 25.7 4.05 23.15 7.4 22.9 10.9 22.8 14.45 25 16.1
M 64.6 -51.1
Q 53.75 -30.95 36.8 -21.7 19.85 -12.45 11 1.9 2.15 16.2 8.25 33 6.25 18.55 15.7 5.3 25.2 -7.95 41.7 -19.35 58.25 -30.75 64.6 -51.1
M 18.4 -34.5
Q 21.75 -32.5 25.05 -29.7
L 43.35 -66.25 18.4 -34.5
M 7.55 -39.1
Q 11.75 -38.1 16 -35.8
L 23.3 -72.1 7.55 -39.1
M -11.5 33
Q -47.25 34.75 -64.6 -33.15 -49.8 48.5 -11.5 33
M -39.1 5.35
Q -38.95 8.85 -36.45 12.25 -33.9 15.55 -30.6 16.65 -27.3 17.8 -25 16.1 -22.8 14.45 -22.9 10.9 -23.15 7.4 -25.7 4.05 -28.15 0.75 -31.45 -0.4 -34.85 -1.55 -37 0.1 -39.3 1.85 -39.1 5.35
M -64.6 -51.1
Q -58.25 -30.75 -41.7 -19.35 -25.2 -7.95 -15.7 5.3 -6.25 18.55 -8.25 33 -2.15 16.2 -11 1.9 -19.85 -12.45 -36.8 -21.7 -53.75 -30.95 -64.6 -51.1
M -16 -35.8
Q -11.75 -38.1 -7.55 -39.1
L -23.3 -72.1 -16 -35.8
M -25.05 -29.7
Q -21.75 -32.5 -18.4 -34.5
L -43.35 -66.25 -25.05 -29.7 Z"/>
</g>

<g id="iso_0_Layer0_0_FILL">
<path fill="#27528D" stroke="none" d="
M 39.15 38.15
Q 39.6 38.15 39.85 38.35 40.05 38.55 40.2 39.1
L 40.35 39.1 40.35 37.8 36 37.8 36 37.95
Q 36.4 38.05 36.55 38.2 36.7 38.35 36.7 38.8
L 36.7 42.55
Q 36.7 43.05 36.55 43.2 36.4 43.4 36 43.5
L 36 43.65 40.45 43.65 40.55 42.25 40.35 42.25
Q 40 43.3 39.15 43.3
L 38.8 43.3
Q 38.35 43.3 38.2 43.15 38 43 38 42.6
L 38 40.9 39.05 40.9
Q 39.75 40.9 39.85 41.65
L 40.05 41.65 40.05 39.8 39.85 39.8
Q 39.75 40.2 39.55 40.4 39.4 40.55 39.05 40.55
L 38 40.55 38 38.15 39.15 38.15
M 28 39.1
L 28.15 39.1 28.15 37.8 23.8 37.8 23.8 37.95
Q 24.2 38.05 24.35 38.2 24.5 38.35 24.5 38.8
L 24.5 42.55
Q 24.5 43.05 24.35 43.2 24.2 43.4 23.8 43.5
L 23.8 43.65 28.25 43.65 28.35 42.25 28.15 42.25
Q 27.8 43.3 26.95 43.3
L 26.6 43.3
Q 26.15 43.3 26 43.15 25.8 43 25.8 42.6
L 25.8 40.9 26.85 40.9
Q 27.55 40.9 27.65 41.65
L 27.85 41.65 27.85 39.8 27.65 39.8
Q 27.55 40.2 27.35 40.4 27.2 40.55 26.85 40.55
L 25.8 40.55 25.8 38.15 26.95 38.15
Q 27.4 38.15 27.65 38.35 27.85 38.55 28 39.1
M 29.9 37.8
L 29.9 37.95
Q 30.35 38.1 30.5 38.25 30.65 38.4 30.65 38.8
L 30.65 42.55
Q 30.65 43.05 30.5 43.2 30.35 43.35 29.9 43.5
L 29.9 43.65 34.35 43.65 34.55 42.15 34.35 42.15
Q 34 42.8 33.7 43.05 33.4 43.3 32.85 43.3 32.3 43.3 32.1 43.2 31.9 43.05 31.9 42.7
L 31.9 38.75
Q 31.9 38.4 32.05 38.25 32.2 38.1 32.65 37.95
L 32.65 37.8 29.9 37.8
M 18.8 39.1
L 18.8 37.8 14.45 37.8 14.45 37.95
Q 14.85 38.05 15 38.2 15.15 38.35 15.15 38.8
L 15.15 42.55
Q 15.15 43.05 15 43.2 14.85 43.4 14.45 43.5
L 14.45 43.65 18.9 43.65 19 42.25 18.8 42.25
Q 18.45 43.3 17.6 43.3
L 17.25 43.3
Q 16.8 43.3 16.65 43.15 16.45 43 16.45 42.6
L 16.45 40.9 17.5 40.9
Q 18.2 40.9 18.3 41.65
L 18.5 41.65 18.5 39.8 18.3 39.8
Q 18.2 40.2 18 40.4 17.85 40.55 17.5 40.55
L 16.45 40.55 16.45 38.15 17.6 38.15
Q 18.05 38.15 18.3 38.35 18.5 38.55 18.65 39.1
L 18.8 39.1
M 9.95 37.8
L 9.95 37.95
Q 10.4 38.1 10.5 38.25 10.65 38.4 10.65 38.8
L 10.65 40.4 7.85 40.4 7.85 38.75
Q 7.85 38.4 8 38.25 8.15 38.05 8.55 37.95
L 8.55 37.8 5.8 37.8 5.8 37.95
Q 6.25 38.1 6.4 38.25 6.55 38.4 6.55 38.8
L 6.55 42.55
Q 6.55 42.95 6.5 43.05 6.45 43.2 6.3 43.3 6.15 43.4 5.8 43.5
L 5.8 43.65 8.55 43.65 8.55 43.5
Q 8.1 43.35 8 43.2 7.85 43.05 7.85 42.65
L 7.85 40.8 10.65 40.8 10.65 42.55
Q 10.65 43.05 10.5 43.2 10.35 43.4 9.95 43.5
L 9.95 43.65 12.7 43.65 12.7 43.5
Q 12.25 43.35 12.1 43.2 11.95 43.05 11.95 42.65
L 11.95 38.9
Q 11.95 38.4 12.1 38.25 12.2 38.1 12.7 37.95
L 12.7 37.8 9.95 37.8
M 76 39.2
L 76 37.65 75.85 37.65
Q 75.7 37.8 75.55 37.8 75.4 37.8 75.05 37.75 74.7 37.65 74.45 37.65 73.65 37.65 73.1 38.15 72.6 38.6 72.6 39.35 72.6 39.7 72.75 40.05 72.85 40.35 73.1 40.6 73.4 40.85 74.15 41.3 75 41.8 75.2 42.1 75.4 42.35 75.4 42.65 75.4 43 75.1 43.25 74.8 43.45 74.3 43.45 73.7 43.45 73.3 43.1 72.9 42.7 72.75 42
L 72.6 42 72.6 43.75 72.75 43.75
Q 72.85 43.55 73.05 43.55 73.15 43.55 73.5 43.65 74.05 43.8 74.5 43.8 75.25 43.8 75.8 43.35 76.35 42.9 76.35 42.1 76.35 41.55 76.05 41.15 75.85 40.85 75.6 40.65 75.4 40.45 74.6 40 73.85 39.5 73.75 39.4 73.6 39.25 73.5 39.1 73.45 38.95 73.45 38.75 73.45 38.45 73.7 38.2 74 38 74.4 38 74.85 38 75.25 38.35 75.7 38.7 75.85 39.2
L 76 39.2
M 69.6 38.15
Q 70.15 38.15 70.45 38.35 70.75 38.6 70.9 39.1
L 71.05 39.1 71 37.7 70.85 37.7
Q 70.65 37.8 70.25 37.8
L 66.5 37.8
Q 66.1 37.8 65.9 37.7
L 65.7 37.7 65.65 39.1 65.85 39.1
Q 66 38.6 66.3 38.35 66.6 38.15 67.15 38.15
L 67.7 38.15 67.7 42.6
Q 67.7 43.05 67.55 43.25 67.4 43.4 67 43.5
L 67 43.65 69.75 43.65 69.75 43.5
Q 69.3 43.4 69.15 43.25 69 43.05 69 42.6
L 69 38.15 69.6 38.15
M 56.5 39.1
L 56.5 37.8 52.15 37.8 52.15 37.95
Q 52.55 38.05 52.7 38.2 52.85 38.35 52.85 38.8
L 52.85 42.55
Q 52.85 43.05 52.7 43.2 52.55 43.4 52.15 43.5
L 52.15 43.65 56.6 43.65 56.7 42.25 56.5 42.25
Q 56.15 43.3 55.3 43.3
L 54.95 43.3
Q 54.5 43.3 54.35 43.15 54.15 43 54.15 42.6
L 54.15 40.9 55.2 40.9
Q 55.9 40.9 56 41.65
L 56.2 41.65 56.2 39.8 56 39.8
Q 55.9 40.2 55.7 40.4 55.55 40.55 55.2 40.55
L 54.15 40.55 54.15 38.15 55.3 38.15
Q 55.75 38.15 56 38.35 56.2 38.55 56.35 39.1
L 56.5 39.1
M 58.35 38.1
Q 58.45 38.2 58.8 38.55
L 58.8 42.5
Q 58.8 43 58.6 43.2 58.45 43.4 58.05 43.5
L 58.05 43.65 60.05 43.65 60.05 43.5
Q 59.55 43.4 59.35 43.2 59.2 43 59.2 42.55
L 59.2 39 63.4 43.7 63.6 43.7 63.6 38.95
Q 63.6 38 64.45 37.95
L 64.45 37.8 62.45 37.8 62.45 37.95
Q 62.9 38.05 63.05 38.3 63.2 38.5 63.2 39.1
L 63.2 41.7 59.8 37.8 58 37.8 58 37.95
Q 58.2 38 58.35 38.1
M 49.85 37.95
L 49.85 37.8 47.9 37.8 46.35 41.65 44.8 37.8 42.7 37.8 42.7 37.95
Q 43.2 38 43.55 38.35
L 42.95 42.2
Q 42.85 42.9 42.65 43.15 42.4 43.45 41.95 43.5
L 41.95 43.65 44.05 43.65 44.05 43.5
Q 43.35 43.45 43.35 42.65 43.35 42.5 43.35 42.3
L 43.85 38.85 45.75 43.65 46 43.65 47.9 38.85 48.4 42.2
Q 48.4 42.45 48.4 42.65 48.4 43 48.25 43.2 48.1 43.4 47.75 43.5
L 47.75 43.65 50.65 43.65 50.65 43.5
Q 50.2 43.4 50 43.2 49.8 42.95 49.75 42.55
L 49.2 38.9
Q 49.2 38.8 49.2 38.65 49.2 38.35 49.35 38.2 49.5 38.05 49.85 37.95
M -45.4 38.45
Q -44.9 38.95 -44.7 39.85
L -44.55 39.85 -44.55 37.7 -44.7 37.7
Q -44.85 38 -45.05 38 -45.15 38 -45.45 37.9 -46.15 37.65 -46.7 37.65 -48.05 37.65 -48.95 38.55 -49.85 39.45 -49.85 40.8 -49.85 42.15 -49 42.95 -48.2 43.8 -46.85 43.8 -45.35 43.8 -44.45 42.6
L -44.45 42.3
Q -44.95 42.8 -45.35 43 -45.8 43.25 -46.35 43.25 -47.35 43.25 -47.9 42.5 -48.45 41.8 -48.45 40.5 -48.45 39.35 -48 38.65 -47.5 38 -46.7 38 -45.95 38 -45.4 38.45
M -52.9 38.15
Q -52.45 38.15 -52.2 38.35 -52 38.55 -51.85 39.1
L -51.7 39.1 -51.7 37.8 -56.05 37.8 -56.05 37.95
Q -55.65 38.05 -55.5 38.2 -55.35 38.35 -55.35 38.8
L -55.35 42.55
Q -55.35 43.05 -55.5 43.2 -55.65 43.4 -56.05 43.5
L -56.05 43.65 -51.6 43.65 -51.5 42.25 -51.7 42.25
Q -52.05 43.3 -52.9 43.3
L -53.25 43.3
Q -53.7 43.3 -53.85 43.15 -54.05 43 -54.05 42.6
L -54.05 40.9 -53 40.9
Q -52.3 40.9 -52.2 41.65
L -52 41.65 -52 39.8 -52.2 39.8
Q -52.3 40.2 -52.5 40.4 -52.65 40.55 -53 40.55
L -54.05 40.55 -54.05 38.15 -52.9 38.15
M -66.25 38.5
Q -67.15 37.65 -68.55 37.65 -69.95 37.65 -70.85 38.5 -71.75 39.4 -71.75 40.75 -71.75 42.05 -70.85 42.95 -69.95 43.8 -68.55 43.8 -67.15 43.8 -66.25 42.95 -65.35 42.05 -65.35 40.75 -65.35 39.4 -66.25 38.5
M -70.35 40.8
Q -70.35 39.4 -69.9 38.7 -69.45 38 -68.55 38 -67.7 38 -67.2 38.7 -66.75 39.4 -66.75 40.75 -66.75 42.05 -67.25 42.75 -67.7 43.45 -68.55 43.45 -69.4 43.45 -69.9 42.75 -70.35 42.05 -70.35 40.8
M -63.1 38.2
Q -62.95 38.35 -62.95 38.75
L -62.95 42.75
Q -62.95 43.4 -63.7 43.5
L -63.7 43.65 -60.9 43.65 -60.9 43.5
Q -61.3 43.4 -61.5 43.25 -61.65 43.05 -61.65 42.65
L -61.65 40.85
Q -61.1 40.85 -60.9 40.95 -60.7 41.05 -60.55 41.3 -60.35 41.5 -60 42.25 -59.5 43.25 -59.15 43.65
L -57.45 43.65 -57.45 43.5
Q -57.8 43.45 -58 43.2 -58.25 43 -58.65 42.15 -59.15 41.3 -59.35 41 -59.6 40.75 -59.8 40.7
L -59.8 40.65
Q -59.25 40.5 -58.95 40.15 -58.65 39.75 -58.65 39.25 -58.65 38.55 -59.2 38.2 -59.8 37.8 -60.9 37.8
L -63.7 37.8 -63.7 37.95
Q -63.25 38.05 -63.1 38.2
M -61.65 38.15
L -61.25 38.15
Q -60.05 38.15 -60.05 39.3 -60.05 39.95 -60.35 40.25 -60.65 40.55 -61.35 40.55 -61.5 40.55 -61.65 40.55
L -61.65 38.15
M -73.3 38.9
L -73.4 37.8 -77.55 37.8 -77.55 37.95
Q -77.1 38.1 -76.95 38.25 -76.8 38.4 -76.8 38.75
L -76.8 42.55
Q -76.8 43.05 -76.95 43.25 -77.1 43.4 -77.55 43.5
L -77.55 43.65 -74.8 43.65 -74.8 43.5
Q -75.2 43.4 -75.35 43.25 -75.5 43.05 -75.5 42.65
L -75.5 40.85 -74.6 40.85
Q -74.2 40.85 -74 41.05 -73.75 41.2 -73.7 41.6
L -73.55 41.6 -73.55 39.8 -73.7 39.8
Q -73.8 40.2 -74 40.35 -74.2 40.55 -74.6 40.55
L -75.5 40.55 -75.5 38.15 -74.5 38.15
Q -74.1 38.15 -73.85 38.3 -73.6 38.5 -73.45 38.9
L -73.3 38.9
M -4.5 41.25
L -4.5 41.1 -6.95 41.1 -6.95 41.25
Q -6.35 41.4 -6.35 42
L -6.35 42.85
Q -6.35 43.45 -7.25 43.45 -8.15 43.45 -8.65 42.8 -9.15 42.15 -9.15 40.85 -9.15 39.5 -8.65 38.75 -8.15 38 -7.25 38 -6.6 38 -6.05 38.4 -5.5 38.75 -5.25 39.45
L -5.1 39.45 -5.1 37.8 -5.25 37.8
Q -5.45 38 -5.7 38 -5.85 38 -6.15 37.9 -6.8 37.65 -7.35 37.65 -8.7 37.65 -9.65 38.55 -10.55 39.45 -10.55 40.75 -10.55 41.6 -10.1 42.3 -9.7 43.05 -9 43.4 -8.3 43.8 -7.35 43.8 -5.95 43.8 -5.1 43.4
L -5.1 42.15
Q -5.1 41.75 -4.95 41.55 -4.85 41.35 -4.5 41.25
M -0.3 37.8
Q -0.7 37.8 -0.9 37.7
L -1.1 37.7 -1.15 39.1 -0.95 39.1
Q -0.8 38.6 -0.5 38.35 -0.2 38.15 0.35 38.15
L 0.9 38.15 0.9 42.6
Q 0.9 43.05 0.75 43.25 0.6 43.4 0.2 43.5
L 0.2 43.65 2.95 43.65 2.95 43.5
Q 2.5 43.4 2.35 43.25 2.2 43.05 2.2 42.6
L 2.2 38.15 2.8 38.15
Q 3.35 38.15 3.65 38.35 3.95 38.6 4.1 39.1
L 4.25 39.1 4.2 37.7 4.05 37.7
Q 3.85 37.8 3.45 37.8
L -0.3 37.8
M -13.3 39.1
L -13.3 41.7 -16.7 37.8 -18.5 37.8 -18.5 37.95
Q -18.3 38 -18.15 38.1 -18.05 38.2 -17.7 38.55
L -17.7 42.5
Q -17.7 43 -17.9 43.2 -18.05 43.4 -18.45 43.5
L -18.45 43.65 -16.45 43.65 -16.45 43.5
Q -16.95 43.4 -17.15 43.2 -17.3 43 -17.3 42.55
L -17.3 39 -13.1 43.7 -12.9 43.7 -12.9 38.95
Q -12.9 38 -12.05 37.95
L -12.05 37.8 -14.05 37.8 -14.05 37.95
Q -13.6 38.05 -13.45 38.3 -13.3 38.5 -13.3 39.1
M -24.4 39.1
L -24.45 37.7 -24.6 37.7
Q -24.8 37.8 -25.2 37.8
L -28.95 37.8
Q -29.35 37.8 -29.55 37.7
L -29.75 37.7 -29.8 39.1 -29.6 39.1
Q -29.45 38.6 -29.15 38.35 -28.85 38.15 -28.3 38.15
L -27.75 38.15 -27.75 42.6
Q -27.75 43.05 -27.9 43.25 -28.05 43.4 -28.45 43.5
L -28.45 43.65 -25.7 43.65 -25.7 43.5
Q -26.15 43.4 -26.3 43.25 -26.45 43.05 -26.45 42.6
L -26.45 38.15 -25.85 38.15
Q -25.3 38.15 -25 38.35 -24.7 38.6 -24.55 39.1
L -24.4 39.1
M -22.2 38.25
Q -22.05 38.4 -22.05 38.8
L -22.05 42.55
Q -22.05 42.95 -22.15 43.05 -22.2 43.2 -22.35 43.3 -22.5 43.4 -22.8 43.5
L -22.8 43.65 -20.05 43.65 -20.05 43.5
Q -20.5 43.35 -20.65 43.2 -20.8 43.05 -20.8 42.65
L -20.8 38.9
Q -20.8 38.4 -20.65 38.25 -20.5 38.05 -20.05 37.95
L -20.05 37.8 -22.8 37.8 -22.8 37.95
Q -22.35 38.1 -22.2 38.25
M -37.7 42.35
L -39.45 37.65 -40.25 37.65 -41.95 42.15
Q -42.2 42.8 -42.45 43.1 -42.7 43.4 -43.05 43.5
L -43.05 43.65 -41.15 43.65 -41.15 43.5
Q -41.75 43.3 -41.75 42.95 -41.75 42.75 -41.65 42.45
L -41.35 41.7 -39.25 41.7 -38.9 42.6
Q -38.8 42.9 -38.8 43.05 -38.8 43.2 -38.95 43.3 -39.1 43.4 -39.45 43.5
L -39.45 43.65 -36.6 43.65 -36.6 43.5
Q -36.95 43.45 -37.2 43.2 -37.45 42.95 -37.7 42.35
M -40.3 38.9
L -39.4 41.25 -41.15 41.25 -40.3 38.9
M -31.7 37.65
L -31.85 37.65
Q -32 37.8 -32.15 37.8 -32.3 37.8 -32.65 37.75 -33 37.65 -33.25 37.65 -34.05 37.65 -34.6 38.15 -35.1 38.6 -35.1 39.35 -35.1 39.7 -34.95 40.05 -34.85 40.35 -34.6 40.6 -34.3 40.85 -33.55 41.3 -32.7 41.8 -32.5 42.1 -32.3 42.35 -32.3 42.65 -32.3 43 -32.6 43.25 -32.9 43.45 -33.4 43.45 -34 43.45 -34.4 43.1 -34.8 42.7 -34.95 42
L -35.1 42 -35.1 43.75 -34.95 43.75
Q -34.85 43.55 -34.65 43.55 -34.55 43.55 -34.2 43.65 -33.65 43.8 -33.2 43.8 -32.45 43.8 -31.9 43.35 -31.35 42.9 -31.35 42.1 -31.35 41.55 -31.65 41.15 -31.85 40.85 -32.1 40.65 -32.3 40.45 -33.1 40 -33.85 39.5 -33.95 39.4 -34.1 39.25 -34.2 39.1 -34.25 38.95 -34.25 38.75 -34.25 38.45 -34 38.2 -33.7 38 -33.3 38 -32.85 38 -32.45 38.35 -32 38.7 -31.85 39.2
L -31.7 39.2 -31.7 37.65
M 38.45 2.8
L 38.45 2.2 30.75 2.2 30.75 2.8
Q 32.15 2.8 32.65 3.55 33.15 4.25 33.15 6.25
L 33.15 12.35 21.45 12.35 21.45 6.25
Q 21.45 4.35 22 3.6 22.55 2.8 23.95 2.8
L 23.95 2.2 16.2 2.2 16.2 2.8
Q 17.6 2.8 18.1 3.55 18.65 4.25 18.65 6.25
L 18.65 19.65
Q 18.65 21.5 18.1 22.25 17.6 23.05 16.2 23.05
L 16.2 23.65 23.95 23.65 23.95 23.05
Q 22.55 23.05 22 22.3 21.45 21.55 21.45 19.65
L 21.45 13.4 33.15 13.4 33.15 19.65
Q 33.15 21.55 32.7 22.3 32.2 23.05 30.75 23.05
L 30.75 23.65 38.45 23.65 38.45 23.05
Q 37.05 23.05 36.55 22.3 36 21.55 36 19.65
L 36 6.25
Q 36 4.3 36.55 3.55 37.05 2.8 38.45 2.8
M 57.85 5.8
L 57.85 2.2 42.4 2.2 42.4 2.8
Q 43.8 2.8 44.3 3.55 44.8 4.3 44.8 6.25
L 44.8 19.65
Q 44.8 21.55 44.3 22.3 43.8 23.05 42.4 23.05
L 42.4 23.65 57.85 23.65 58.8 19.65 58.2 19.65
Q 57.6 21 57.05 21.6 56.5 22.15 55.75 22.4 55 22.6 52.95 22.6
L 49.2 22.6
Q 48.35 22.6 48 22.3 47.65 21.95 47.65 21.15
L 47.65 13.45 52.95 13.45
Q 54.65 13.45 55.15 13.8 55.6 14.15 55.95 15.55
L 56.6 15.55 56.6 10.3 55.95 10.3
Q 55.75 11.55 55.35 12 54.85 12.4 53.65 12.4
L 47.65 12.4 47.65 3.25 53.85 3.25
Q 55.9 3.25 56.5 3.75 57.1 4.25 57.45 5.8
L 57.85 5.8
M 83.2 23.05
Q 82.15 22.95 81.2 22.1 80.25 21.2 78.6 18.4 77.05 15.9 76.15 14.8 75.2 13.7 74.25 13.1 78.7 11.75 78.7 7.8 78.7 5.35 76.75 3.8 74.8 2.2 71.55 2.2
L 62.75 2.2 62.75 2.8
Q 64.15 2.8 64.65 3.55 65.15 4.25 65.15 6.15
L 65.15 19.65
Q 65.15 21.55 64.65 22.3 64.15 23.05 62.75 23.05
L 62.75 23.65 70.45 23.65 70.45 23.05
Q 69.1 23.05 68.55 22.3 68 21.55 68 19.65
L 68 13.7 69.75 13.7
Q 71.15 13.7 72.3 14.65 73.45 15.55 75.5 18.9 77.45 22 78.8 23.65
L 83.2 23.65 83.2 23.05
M 74.2 4.35
Q 75.7 5.7 75.7 7.9 75.7 10.1 74.35 11.45 73 12.8 70.65 12.8
L 68 12.8 68 3 70.25 3
Q 72.7 3 74.2 4.35
M -50.35 2.8
L -50.35 2.2 -56.9 2.2 -56.9 2.8
Q -54.75 2.8 -54.75 4.65 -54.75 5.6 -55.25 7.05
L -59.65 19.05 -64.7 5.45
Q -65 4.65 -65 4.1 -65 2.8 -62.9 2.8
L -62.9 2.2 -70.75 2.2 -70.75 2.8
Q -69.5 2.8 -68.85 3.35 -68.2 3.9 -67.75 5.2
L -67.25 6.55 -71.85 19.05 -76.85 5.4
Q -77.15 4.7 -77.15 4.2 -77.15 3.05 -75.25 2.8
L -75.25 2.2 -83.2 2.2 -83.2 2.8
Q -81.95 2.8 -81.45 3.1 -80.95 3.35 -80.55 4.1 -80.1 4.8 -79.55 6.25
L -73 23.95 -72.4 23.95 -66.7 8.1 -60.85 23.95 -60.2 23.95 -54.15 7.15
Q -53.3 4.85 -52.5 3.9 -51.65 2.9 -50.35 2.8
M -31.6 5.8
L -31.6 2.2 -47.05 2.2 -47.05 2.8
Q -45.65 2.8 -45.15 3.55 -44.65 4.3 -44.65 6.25
L -44.65 19.65
Q -44.65 21.55 -45.15 22.3 -45.65 23.05 -47.05 23.05
L -47.05 23.65 -31.6 23.65 -30.65 19.65 -31.25 19.65
Q -31.85 21 -32.4 21.6 -32.95 22.15 -33.7 22.4 -34.45 22.6 -36.5 22.6
L -40.25 22.6
Q -41.1 22.6 -41.45 22.3 -41.8 21.95 -41.8 21.15
L -41.8 13.45 -36.5 13.45
Q -34.8 13.45 -34.3 13.8 -33.85 14.15 -33.5 15.55
L -32.85 15.55 -32.85 10.3 -33.5 10.3
Q -33.7 11.55 -34.1 12 -34.6 12.4 -35.8 12.4
L -41.8 12.4 -41.8 3.25 -35.6 3.25
Q -33.55 3.25 -32.95 3.75 -32.35 4.25 -32 5.8
L -31.6 5.8
M -15.85 1.95
L -18.05 1.95 -24 19.65
Q -24.65 21.6 -25.35 22.25 -26 22.85 -27.2 23.05
L -27.2 23.65 -21.65 23.65 -21.65 23.05
Q -23.35 23 -23.35 21.65 -23.35 20.9 -22.8 19.3
L -21.35 14.95 -14.45 14.95 -12.45 20.95
Q -12.25 21.4 -12.25 21.75 -12.25 23.05 -14.1 23.05
L -14.1 23.65 -6.55 23.65 -6.55 23.05
Q -7.9 23.05 -8.5 22.55 -9.05 22.1 -9.6 20.45
L -15.85 1.95
M -17.9 4.55
L -14.85 13.65 -20.9 13.65 -17.9 4.55
M -4.8 3.95
Q -3.75 3.25 -1.55 3.25
L 1.55 3.25 1.55 19.65
Q 1.55 21.45 1.05 22.25 0.55 23.05 -0.85 23.05
L -0.85 23.65 6.75 23.65 6.75 23.05
Q 5.35 23.05 4.9 22.35 4.4 21.65 4.4 19.75
L 4.4 3.25 7.65 3.25
Q 9.75 3.25 10.75 3.9 11.8 4.55 12.2 6.3
L 12.6 6.3 12.6 1.4 11.95 1.4
Q 10.95 2.2 8.55 2.2
L -2.7 2.2
Q -5.05 2.2 -5.95 1.4
L -6.55 1.4 -6.55 6.3 -5.95 6.3
Q -5.8 4.65 -4.8 3.95 Z"/>
</g>

<g id="iso_0_Layer0_0_MEMBER_0_FILL">
<path fill="#27528D" stroke="none" d="
M 614.8 230
L 614.05 230
Q 612.95 230.9 610.2 230.9
L 597.45 230.9
Q 594.75 230.9 593.8 230
L 593.05 230 593.05 235.55 593.8 235.55
Q 593.95 233.7 595.1 232.9 596.25 232.05 598.75 232.05
L 602.3 232.05 602.3 250.65
Q 602.3 252.75 601.7 253.6 601.1 254.5 599.5 254.5
L 599.5 255.2 608.15 255.2 608.15 254.5
Q 606.55 254.5 606.05 253.75 605.5 252.95 605.5 250.75
L 605.5 232.05 609.2 232.05
Q 611.5 232.05 612.7 232.8 613.85 233.55 614.3 235.55
L 614.8 235.55 614.8 230
M 626.3 230.6
L 623.85 230.6 617.1 250.7
Q 616.3 252.9 615.6 253.6 614.85 254.3 613.5 254.5
L 613.5 255.2 619.75 255.2 619.75 254.5
Q 617.85 254.45 617.85 252.9 617.85 252.1 618.45 250.25
L 620.1 245.35 627.95 245.35 630.2 252.1
Q 630.4 252.65 630.4 253.05 630.4 254.5 628.3 254.5
L 628.3 255.2 636.85 255.2 636.85 254.5
Q 635.35 254.5 634.65 253.95 634 253.4 633.4 251.55
L 626.3 230.6
M 627.45 243.85
L 620.55 243.85 624 233.55 627.45 243.85
M 664.2 230.9
L 664.2 231.55
Q 666.6 231.55 666.6 233.65 666.6 234.7 666 236.35
L 661.05 250 655.35 234.6
Q 655 233.65 655 233.05 655 231.6 657.35 231.6
L 657.35 230.9 648.45 230.9 648.45 231.6
Q 649.85 231.6 650.6 232.2 651.35 232.8 651.85 234.25
L 652.4 235.85 647.25 250 641.55 234.55
Q 641.25 233.7 641.25 233.15 641.25 231.85 643.35 231.6
L 643.35 230.9 634.35 230.9 634.35 231.6
Q 635.75 231.6 636.3 231.9 636.9 232.2 637.4 233 637.85 233.8 638.45 235.45
L 645.9 255.55 646.6 255.55 653.05 237.6 659.65 255.55 660.4 255.55 667.25 236.55
Q 668.2 233.85 669.15 232.8 670.1 231.7 671.55 231.6
L 671.55 230.9 664.2 230.9
M 699.2 231.6
L 699.2 230.9 690.5 230.9 690.5 231.6
Q 692.05 231.6 692.65 232.4 693.2 233.25 693.2 235.45
L 693.2 242.4 679.95 242.4 679.95 235.45
Q 679.95 233.35 680.55 232.5 681.2 231.6 682.75 231.6
L 682.75 230.9 674 230.9 674 231.6
Q 675.55 231.6 676.15 232.4 676.75 233.25 676.75 235.45
L 676.75 250.65
Q 676.75 252.75 676.15 253.6 675.6 254.5 674 254.5
L 674 255.2 682.75 255.2 682.75 254.5
Q 681.2 254.5 680.55 253.65 679.95 252.8 679.95 250.65
L 679.95 243.55 693.2 243.55 693.2 250.65
Q 693.2 252.8 692.65 253.65 692.1 254.5 690.5 254.5
L 690.5 255.2 699.2 255.2 699.2 254.5
Q 697.65 254.5 697.05 253.65 696.45 252.8 696.45 250.65
L 696.45 235.45
Q 696.45 233.3 697.05 232.45 697.65 231.6 699.2 231.6
M 701.95 230.9
L 701.95 231.6
Q 703.55 231.6 704.15 232.4 704.7 233.25 704.7 235.45
L 704.7 250.65
Q 704.7 252.85 704.1 253.65 703.55 254.5 701.95 254.5
L 701.95 255.2 710.7 255.2 710.7 254.5
Q 709.15 254.5 708.55 253.65 707.95 252.8 707.95 250.65
L 707.95 235.45
Q 707.95 233.3 708.55 232.45 709.15 231.6 710.7 231.6
L 710.7 230.9 701.95 230.9
M 731.35 237.25
Q 731.35 234.45 729.2 232.7 726.95 230.9 723.25 230.9
L 713.3 230.9 713.3 231.6
Q 714.95 231.6 715.5 232.4 716.05 233.25 716.05 235.4
L 716.05 250.65
Q 716.05 252.8 715.5 253.65 714.9 254.5 713.3 254.5
L 713.3 255.2 722.05 255.2 722.05 254.5
Q 720.5 254.5 719.9 253.65 719.25 252.8 719.25 250.65
L 719.25 243.95 721.25 243.95
Q 722.85 243.95 724.15 245 725.45 246 727.8 249.8 729.95 253.35 731.5 255.2
L 736.45 255.2 736.45 254.5
Q 735.3 254.4 734.25 253.4 733.2 252.4 731.25 249.25 729.55 246.4 728.5 245.15 727.45 243.9 726.35 243.2 731.35 241.75 731.35 237.25
M 719.25 231.8
L 721.8 231.8
Q 724.6 231.8 726.3 233.35 728 234.85 728 237.35 728 239.85 726.45 241.4 724.95 242.95 722.25 242.95
L 719.25 242.95 719.25 231.8
M 746.95 230.9
L 738.2 230.9 738.2 231.6
Q 739.8 231.6 740.4 232.4 740.95 233.25 740.95 235.45
L 740.95 250.65
Q 740.95 252.85 740.35 253.65 739.8 254.5 738.2 254.5
L 738.2 255.2 746.95 255.2 746.95 254.5
Q 745.4 254.5 744.8 253.65 744.2 252.8 744.2 250.65
L 744.2 235.45
Q 744.2 233.3 744.8 232.45 745.4 231.6 746.95 231.6
L 746.95 230.9 Z"/>
</g>

<path id="logo_0_Layer0_0_MEMBER_0_1_STROKES" stroke="#8CABCA" stroke-width="1" stroke-linejoin="round" stroke-linecap="round" fill="none" d="
M -23.05 18.6
Q -26.1 20.8 -30.4 19.35 -34.8 17.9 -38.1 13.45 -41.45 9.15 -41.65 4.45 -41.8 -0.15 -38.9 -2.45 -36 -4.6 -31.55 -3.1 -27.25 -1.5 -23.95 2.8 -20.65 7.2 -20.4 11.8 -20.2 16.4 -23.05 18.6 Z"/>

<path id="iso_0_Layer0_0_1_STROKES" stroke="#8CABCA" stroke-width="1" stroke-linejoin="round" stroke-linecap="round" fill="none" d="
M -79.55 -9.6
L 79.55 -9.6"/>
</defs>

<g transform="matrix( 0.727142333984375, 0, 0, 0.727142333984375, 92.75,74.05) ">
<g transform="matrix( 1, 0, 0, 1, 0,0) ">
<use xlink:href="#logo_0_Layer0_0_FILL"/>
</g>

<g transform="matrix( 1, 0, 0, 1, 0,0) ">
<use xlink:href="#logo_0_Layer0_0_MEMBER_0_1_STROKES"/>
</g>
</g>

<g transform="matrix( 0.9477081298828125, 0, 0, 0.9477081298828125, 261.15,85.3) ">
<g transform="matrix( 1, 0, 0, 1, 0,0) ">
<use xlink:href="#iso_0_Layer0_0_FILL"/>

<use xlink:href="#iso_0_Layer0_0_1_STROKES"/>
</g>

<g transform="matrix( 1, 0, 0, 1, -670,-274.65) ">
<use xlink:href="#iso_0_Layer0_0_MEMBER_0_FILL"/>
</g>
</g>
</svg>
